<svg width="24" height="24" xmlns="http://www.w3.org/2000/svg" xmlns:xlink="http://www.w3.org/1999/xlink" data-test-id="os-icon-svg" aria-hidden="true" class="os-icon__svg" style="fill:var(--color-icon-color--standard-4);width:18px;height:18px;min-width:18px;min-height:18px"><defs><path id="a" d="M12.001 3a.774.774 0 0 0-.782.766v1.431L9.85 3.734a.796.796 0 0 0-1.107-.047.756.756 0 0 0-.047 1.083l2.523 2.696v3.207L8.384 9.07 7.26 5.58a.789.789 0 0 0-.983-.5.765.765 0 0 0-.51.962l.61 1.894-1.267-.717a.79.79 0 0 0-1.07.281.756.756 0 0 0 .286 1.047l1.267.716-1.98.43a.766.766 0 0 0-.595.913.78.78 0 0 0 .933.583l3.65-.791L10.436 12 7.6 13.603l-3.648-.792a.781.781 0 0 0-.933.582.767.767 0 0 0 .594.915l1.98.43-1.266.715a.757.757 0 0 0-.286 1.047.786.786 0 0 0 1.069.28l1.267-.716-.61 1.895c-.13.403.1.834.51.962a.81.81 0 0 0 .236.035.782.782 0 0 0 .747-.535l1.124-3.491 2.835-1.603v3.204l-2.525 2.7a.756.756 0 0 0 .048 1.082.795.795 0 0 0 1.106-.047l1.37-1.465v1.433c0 .423.35.766.783.766a.774.774 0 0 0 .783-.766V18.8l1.37 1.466a.792.792 0 0 0 1.105.048.754.754 0 0 0 .05-1.084l-2.525-2.7v-3.203l2.834 1.602 1.122 3.49a.781.781 0 0 0 .981.5.764.764 0 0 0 .512-.96l-.609-1.896 1.267.717c.122.07.256.102.39.102.27 0 .533-.137.678-.383a.756.756 0 0 0-.286-1.047l-1.266-.716 1.98-.43a.767.767 0 0 0 .594-.914.782.782 0 0 0-.933-.582l-3.648.791L13.566 12l2.834-1.602 3.648.791a.778.778 0 0 0 .932-.583.767.767 0 0 0-.595-.913l-1.978-.43 1.267-.716a.757.757 0 0 0 .285-1.047.79.79 0 0 0-1.068-.28l-1.266.715.609-1.893a.764.764 0 0 0-.512-.962.787.787 0 0 0-.981.5l-1.122 3.49-2.835 1.603V7.467l2.524-2.698a.755.755 0 0 0-.05-1.083.794.794 0 0 0-1.104.047l-1.37 1.465V3.766A.774.774 0 0 0 12 3"/></defs><use xlink:href="#a" fill-rule="evenodd"/></svg>