<svg width="24" height="24" xmlns="http://www.w3.org/2000/svg" xmlns:xlink="http://www.w3.org/1999/xlink" data-test-id="os-icon-svg" aria-hidden="true" class="os-icon__svg" style="fill:var(--color-icon-color--standard-4);width:18px;height:18px;min-width:18px;min-height:18px"><defs><path id="a" d="M21.997 4a1 1 0 0 1 1 1v14a1 1 0 0 1-1 1H2.037a1 1 0 0 1-1-.997L1 5.003A1 1 0 0 1 1.997 4h20zM20.5 5.5H3.503a1 1 0 0 0-1 1v.003l.032 11a1 1 0 0 0 1 .997H20.5a1 1 0 0 0 1-1v-11a1 1 0 0 0-1-1zM18.997 14a1 1 0 1 1 0 2h-5a1 1 0 0 1 0-2h5zm-11.5-1c3.33 0 3.492 1.215 3.5 2.76V16h-7c0-1.657 0-3 3.5-3zm11.5-2a1 1 0 1 1 0 2h-5a1 1 0 0 1 0-2h5zM7.5 8a2 2 0 1 1 0 4 2 2 0 0 1 0-4zm8.497 0a1 1 0 1 1 0 2h-2a1 1 0 0 1 0-2h2z"/></defs><use xlink:href="#a" fill-rule="evenodd"/></svg>