<svg width="24" height="24" xmlns="http://www.w3.org/2000/svg" xmlns:xlink="http://www.w3.org/1999/xlink" data-test-id="os-icon-svg" aria-hidden="true" class="os-icon__svg" style="fill:var(--color-icon-color--standard-4);width:18px;height:18px;min-width:18px;min-height:18px"><defs><path id="a" d="M14 12h-4c-.6 0-1-.4-1-1s.4-1 1-1h4c.6 0 1 .4 1 1s-.4 1-1 1zm-3-5h2V4h-2v3zm4 0V4c.6 0 1-.4 1-1s-.4-1-1-1H9c-.6 0-1 .4-1 1s.4 1 1 1v3c-1.7 0-3 1.3-3 3v8c0 1.3.8 2.4 2 2.8v.8c0 .2.2.4.4.4h1.2c.2 0 .4-.2.4-.4V21h4v.6c0 .2.2.4.4.4h1.2c.2 0 .4-.2.4-.4v-.8c1.2-.4 2-1.5 2-2.8v-8c0-1.7-1.3-3-3-3z"/></defs><use xlink:href="#a" fill-rule="evenodd"/></svg>