<svg class="benefit__icon" width="105" height="107" fill="none" xmlns="http://www.w3.org/2000/svg"><path d="M32 59a2 2 0 1 0-.04.4" stroke="#fff" stroke-width="4" stroke-linecap="round" style="stroke-dashoffset:0;stroke-dasharray:300"/><path d="M80.478 16.52v15.447l-5.894 3.64-5.893-3.64V16.52c-6.722 2.418-11.529 8.848-11.529 16.398 0 6.613 3.687 12.37 9.119 15.324v33.67a8.128 8.128 0 0 0 16.254 0V48.418C88.157 45.526 92 39.673 92 32.918c0-7.55-4.807-13.98-11.529-16.398h.007ZM57.154 73.567h-35a7.947 7.947 0 0 1-7.91-7.183l-1.318-13.682c-.475-3.204 1.487-6.267 4.604-7.15 4.834-1.37 16.139-3.143 34.124-3.143M38.863 73.567v7.843a3.944 3.944 0 0 1-3.945 3.944H24.863a3.944 3.944 0 0 1-3.945-3.945v-7.842M24.564 43.747l5.344-12.527c1.786-4.183 5.513-7.238 9.974-8.107 3.035-.59 8.338-1.127 11.767-1.202" stroke="#fff" stroke-width="5.5" stroke-linecap="round" stroke-linejoin="round" style="stroke-dashoffset:0;stroke-dasharray:300"/></svg>