<svg class="benefit__icon" width="105" height="107" fill="none" xmlns="http://www.w3.org/2000/svg"><path d="M55.725 55.96c8.968-1.368 15.754-9.41 15.164-18.926-.55-8.958-7.814-16.244-16.735-16.803-10.412-.647-19.05 7.636-19.05 17.949 0 4.441 1.604 8.506 4.255 11.64l3.564 3.248a3.268 3.268 0 0 1 1.061 2.413v.364a2.892 2.892 0 0 1-2.886 2.899c-11.546 0-20.91 9.402-20.91 20.995v0a7.057 7.057 0 0 0 7.056 7.057h50.503a7.057 7.057 0 0 0 7.057-7.057v0c0-9.564-6.364-17.632-15.07-20.166" stroke="#fff" stroke-width="5.5" stroke-linecap="round" stroke-linejoin="round" style="stroke-dashoffset:0;stroke-dasharray:300"/><path d="M60 55a3 3 0 1 0-.06.6" stroke="#fff" stroke-width="4" stroke-linecap="round" style="stroke-dashoffset:0;stroke-dasharray:300"/></svg>