<svg class="benefits__car-label" width="176" height="57" fill="none" xmlns="http://www.w3.org/2000/svg" style="opacity:1"><path d="M.88 3.394c.052-.274.122-.553.211-.845.088-.284.2-.531.332-.75.138-.209.317-.378.55-.487.224-.112.53-.134.89-.064.306.059.605.36.897.913.292.552.57 1.224.83 2.022.261.799.5 1.666.72 2.595.218.937.403 1.786.554 2.563.151.777.267 1.442.354 2.004.08.56.136.856.161.893.607-.997 1.278-2.071 2.008-3.24a18.785 18.785 0 0 1 2.498-3.17 10.924 10.924 0 0 1 3.1-2.24c1.138-.545 2.424-.68 3.867-.401a6.488 6.488 0 0 1 2.027.749c.614.354 1.13.803 1.553 1.348.424.546.722 1.148.91 1.819.188.67.209 1.406.054 2.206-.13.674-.489 1.101-1.082 1.271-.587.172-1.225.195-1.9.065l-.462-.09L17.357 8.2c-.063-.012-.107-.037-.132-.074-.063-.013-.118-.023-.16-.056a.531.531 0 0 0-.16-.055c-1.075-.207-1.963-.07-2.682.41-.71.48-1.308 1.13-1.783 1.95a10.862 10.862 0 0 0-1.105 2.65c-.264.948-.474 1.827-.627 2.619a10.411 10.411 0 0 0-.18 1.9c.005.652.02 1.29.06 1.924.042.626.056 1.271.06 1.923.005.65-.065 1.312-.195 1.987-.248 1.286-1.063 1.796-2.443 1.53-.768-.149-1.481-.71-2.157-1.677-.674-.976-1.29-2.168-1.863-3.58a38.909 38.909 0 0 1-1.518-4.611 56.237 56.237 0 0 1-1.073-4.81C1.13 8.678.941 7.293.844 6.062.748 4.833.748 3.946.856 3.39l.023.004ZM23.238 15.026c.319-1.655.834-3.271 1.553-4.849.719-1.577 1.641-2.944 2.766-4.094a10.577 10.577 0 0 1 4.024-2.566c1.556-.562 3.329-.643 5.32-.259 1.137.22 2.094.615 2.868 1.196a6.859 6.859 0 0 1 1.85 2.048c.45.786.736 1.663.852 2.62a9.38 9.38 0 0 1-.106 2.916c-.301 1.56-.955 3.012-1.961 4.347a13.282 13.282 0 0 1-3.651 3.33 12.485 12.485 0 0 1-4.653 1.73 9.126 9.126 0 0 1-4.858-.531c-.14.892.02 1.663.48 2.313a5.677 5.677 0 0 0 1.813 1.61c.747.428 1.535.768 2.384 1.005.84.243 1.6.43 2.275.56.674.13 1.377.2 2.01.201a42.034 42.034 0 0 0 1.924-.06 34.74 34.74 0 0 1 1.946-.056c.651-.004 1.329.07 2.034.206.275.052.546.121.822.207.269.084.514.205.745.355.222.157.394.36.498.625.113.257.127.56.062.898a1.895 1.895 0 0 1-.922 1.327c-.506.3-1.11.526-1.822.673-.712.148-1.482.219-2.307.198a33.506 33.506 0 0 1-2.383-.127 27.004 27.004 0 0 1-2.097-.258 62.927 62.927 0 0 1-1.409-.247c-1.96-.378-3.664-1.032-5.11-1.962-1.44-.928-2.596-2.062-3.447-3.38-.858-1.33-1.422-2.837-1.682-4.521-.26-1.686-.204-3.496.17-5.433l.012-.022Zm5.453-2.047c-.207 1.074-.21 1.887-.013 2.43.195.55.861.93 1.998 1.15.8.153 1.605.154 2.43.012a7.488 7.488 0 0 0 2.327-.811 6.051 6.051 0 0 0 1.853-1.554 4.983 4.983 0 0 0 .992-2.192c.09-.462.141-.94.158-1.45a3.82 3.82 0 0 0-.224-1.45 3.122 3.122 0 0 0-.746-1.193c-.335-.333-.803-.561-1.422-.68-.918-.178-1.796-.135-2.629.135s-1.57.681-2.215 1.24a7.501 7.501 0 0 0-1.627 1.98 7.797 7.797 0 0 0-.89 2.382l.008.001ZM44.806 16.372c.155-.8.46-1.335.929-1.61.468-.276 1.144-.324 2.03-.154l.463.09c-.001.512-.008 1.096-.007 1.763.002.667.055 1.36.168 2.082.113.721.283 1.397.51 2.034.229.63.556 1.165.977 1.595a7.333 7.333 0 0 1 1.407-2.949 11.402 11.402 0 0 1 2.396-2.303 11.697 11.697 0 0 1 2.867-1.496c1.004-.36 1.976-.546 2.898-.564l1.011.195c1.475.285 2.666.856 3.582 1.716a8.704 8.704 0 0 1 2.099 3.072c.486 1.192.78 2.493.888 3.913.108 1.42.126 2.846.06 4.281a40.063 40.063 0 0 1-.411 4.117 96.352 96.352 0 0 1-.572 3.346l-3.356-.647c.175-1.878.278-3.68.33-5.426.037-.692.057-1.429.045-2.212-.012-.783-.04-1.52-.101-2.215a22.58 22.58 0 0 0-.24-1.958 6.89 6.89 0 0 0-.458-1.592 20.31 20.31 0 0 1-.388-.604c-.155-.25-.325-.51-.495-.762a8.88 8.88 0 0 0-.49-.664c-.15-.192-.247-.283-.278-.29-.87-.42-1.704-.401-2.493.065-.79.466-1.541 1.158-2.261 2.068-.72.91-1.359 1.983-1.928 3.207a63.947 63.947 0 0 0-1.522 3.545 46.99 46.99 0 0 0-1.057 2.993 97.213 97.213 0 0 1-.486 1.549c-.874.4-1.627.426-2.257.068-.63-.357-1.172-.966-1.626-1.818-.454-.852-.818-1.873-1.075-3.07a39.062 39.062 0 0 1-.63-3.773 64.806 64.806 0 0 1-.36-3.957c-.08-1.316-.136-2.539-.172-3.66l.003.025ZM63.325 11.982a.497.497 0 0 1 .091-.219.704.704 0 0 1 .091-.218 7.8 7.8 0 0 1 .664-.49c.29-.196.471-.291.534-.28l9.244 1.784c.066-.337.121-.88.17-1.635.047-.755.117-1.58.219-2.487a23.57 23.57 0 0 1 .466-2.797c.217-.959.52-1.811.897-2.543.379-.74.871-1.313 1.478-1.716.606-.404 1.362-.526 2.287-.348-.597 3.097-.865 5.624-.794 7.573.07 1.957.366 3.503.892 4.653.527 1.151 1.215 1.967 2.081 2.451a7.857 7.857 0 0 0 2.755.938c.974.14 1.942.18 2.915.107.965-.066 1.821-.08 2.56-.035.74.045 1.3.226 1.687.537.387.31.493.9.328 1.755-.124.643-.362 1.077-.705 1.295-.343.219-.95.33-1.802.32-.25-.016-.668-.04-1.247-.07-.58-.03-1.237-.084-1.945-.164-.718-.073-1.484-.148-2.29-.23a121.4 121.4 0 0 1-2.29-.23 32.052 32.052 0 0 1-1.951-.255 53.399 53.399 0 0 1-1.29-.224c-.03.157-.096.412-.199.775-.102.362-.165.602-.189.728a12.44 12.44 0 0 0-.116 4.06 70.34 70.34 0 0 0 .671 4.066c.268 1.353.487 2.704.676 4.042a12.19 12.19 0 0 1-.111 4.037c-.047.243-.12.497-.217.747a1.83 1.83 0 0 1-.408.637 1.403 1.403 0 0 1-.685.348c-.28.06-.636-.034-1.069-.28-1.109-.53-1.844-1.356-2.214-2.476-.37-1.12-.561-2.402-.567-3.85a32.813 32.813 0 0 1 .308-4.544c.206-1.579.348-3.072.407-4.476.067-1.402-.029-2.633-.266-3.679-.245-1.047-.822-1.769-1.729-2.171l-8.485-3.735c-.126-.024-.28-.192-.474-.498-.193-.306-.312-.532-.352-.662a.522.522 0 0 1-.003-.236.629.629 0 0 1 .006-.284l-.029-.021ZM103.841 23.797c.148-.768.397-1.338.739-1.72.342-.381.947-.484 1.802-.32.094.02.266.052.52.126.256.065.419.105.482.117.029.99.057 2.069.068 3.234.011 1.165.067 2.347.155 3.535.087 1.196.217 2.376.388 3.556.171 1.18.45 2.266.828 3.258a5.37 5.37 0 0 0 1.599-1.839 16.62 16.62 0 0 0 1.014-2.31c.283-.79.542-1.546.797-2.277.255-.732.599-1.332 1.039-1.8.44-.469 1.01-.765 1.724-.888.706-.116 1.615.06 2.737.528 1.286.248 2.268.681 2.944 1.308a7.788 7.788 0 0 1 1.653 2.181c.425.83.834 1.706 1.211 2.617.376.918.919 1.77 1.625 2.582.257-.365.588-.814.979-1.364.389-.543.855-1.104 1.399-1.69a37.455 37.455 0 0 1 1.714-1.72 16.791 16.791 0 0 1 1.844-1.506 9.359 9.359 0 0 1 1.865-1.023c.617-.247 1.191-.315 1.709-.216 1.254.242 2.269.845 3.043 1.807.766.961 1.369 2.094 1.8 3.397.431 1.311.718 2.733.869 4.267.15 1.541.217 3.01.2 4.406a44.023 44.023 0 0 1-.189 3.802c-.106 1.142-.206 1.953-.301 2.447-.077.4-.23.687-.451.864a1.794 1.794 0 0 1-.784.353c-.296.057-.607.07-.933.032a9.377 9.377 0 0 1-.903-.126 1.34 1.34 0 0 1-.27-.076 5.786 5.786 0 0 1-.402-.15c-.12-.056-.275-.135-.483-.24l-.335-14.33c.019-.094-.074-.29-.267-.596s-.349-.507-.455-.592a.477.477 0 0 1-.218-.091c-.063-.012-.11-.021-.137-.05a.21.21 0 0 0-.089-.042c-.643-.124-1.297.018-1.971.433-.666.416-1.326.972-1.965 1.67a22.06 22.06 0 0 0-1.894 2.4 39.855 39.855 0 0 0-1.717 2.703c-.523.899-.993 1.735-1.408 2.493a76.921 76.921 0 0 1-.979 1.747c-.138.038-.391.046-.769.022a7.415 7.415 0 0 1-.751-.071c-.862-.167-1.463-.592-1.803-1.275-.348-.685-.58-1.503-.7-2.445a24.643 24.643 0 0 1-.173-3.067 23.461 23.461 0 0 0-.173-3.067c-.119-.942-.375-1.764-.77-2.458-.395-.694-1.043-1.128-1.968-1.307-.337-.065-.724.21-1.16.826-.435.615-.875 1.417-1.324 2.396a63.99 63.99 0 0 0-1.328 3.176 72.837 72.837 0 0 0-1.164 3.207c-.339 1-.7 2.2-1.096 3.578-.081.082-.217.154-.426.227-.202.075-.419.147-.639.235-.22.088-.441.135-.649.16a1.657 1.657 0 0 1-.457.009c-.863-.166-1.611-.717-2.259-1.656-.649-.938-1.183-2.09-1.603-3.456a31.949 31.949 0 0 1-1.001-4.463 51.949 51.949 0 0 1-.597-8.752c.029-1.206.098-2.112.216-2.724l-.002.008ZM143.386 38.199c.32-1.655.835-3.271 1.554-4.849.719-1.577 1.641-2.944 2.766-4.094a10.57 10.57 0 0 1 4.024-2.566c1.556-.562 3.329-.643 5.32-.259 1.137.22 2.094.615 2.868 1.196a6.853 6.853 0 0 1 1.85 2.048c.45.786.736 1.663.852 2.62a9.358 9.358 0 0 1-.106 2.916c-.301 1.56-.955 3.012-1.961 4.347a13.296 13.296 0 0 1-3.651 3.33 12.488 12.488 0 0 1-4.653 1.73 9.125 9.125 0 0 1-4.858-.531c-.14.892.021 1.663.481 2.313a5.677 5.677 0 0 0 1.812 1.61c.747.428 1.535.768 2.384 1.005.84.243 1.601.43 2.275.56.674.13 1.376.2 2.011.201a41.904 41.904 0 0 0 1.923-.06 34.713 34.713 0 0 1 1.946-.056c.651-.004 1.328.07 2.034.206.275.052.546.121.822.207.269.084.514.205.745.355.222.157.394.36.498.625.113.257.127.56.062.898a1.893 1.893 0 0 1-.923 1.327c-.505.3-1.109.526-1.821.673-.712.148-1.482.218-2.307.198a33.452 33.452 0 0 1-2.383-.127 26.971 26.971 0 0 1-2.097-.258 61.363 61.363 0 0 1-1.408-.247c-1.961-.378-3.665-1.032-5.112-1.962-1.439-.928-2.595-2.062-3.447-3.38-.858-1.33-1.421-2.837-1.681-4.522-.261-1.684-.204-3.495.169-5.432l.012-.022Zm5.454-2.047c-.207 1.074-.21 1.887-.013 2.43.195.55.861.93 1.998 1.15.8.153 1.605.154 2.429.012a7.48 7.48 0 0 0 2.328-.811 6.044 6.044 0 0 0 1.853-1.554 4.97 4.97 0 0 0 .992-2.192c.09-.462.141-.94.158-1.45a3.824 3.824 0 0 0-.225-1.45 3.113 3.113 0 0 0-.745-1.193c-.335-.333-.803-.561-1.422-.68-.918-.178-1.796-.136-2.629.135a6.308 6.308 0 0 0-2.215 1.24 7.503 7.503 0 0 0-1.627 1.98 7.808 7.808 0 0 0-.89 2.382l.008.001ZM172.477 21.25c.979-.609 1.654-.65 2.027-.138.38.52.569 1.394.565 2.638-.003 1.235-.146 2.696-.437 4.372a526.62 526.62 0 0 1-.918 5.142 237.03 237.03 0 0 0-.863 4.982c-.254 1.569-.369 2.84-.327 3.8a6.731 6.731 0 0 1-.325 1.181 2.217 2.217 0 0 1-.482.77c-.198.18-.472.299-.831.343-.358.045-.816.014-1.364-.092-.095-.018-.172-.082-.248-.194-.076-.112-.11-.396-.118-.86-.008-.466.039-1.172.124-2.124.086-.95.253-2.277.509-3.984.246-1.701.576-3.834.997-6.395.413-2.564.979-5.708 1.702-9.456l-.011.014Zm-2.44 31.206c.4.077.767.278 1.105.595.337.317.523.662.564 1.036.042.374-.143.745-.524 1.119-.389.372-1.125.645-2.208.818-.807-.285-1.355-.603-1.652-.96-.297-.359-.434-.703-.419-1.033.015-.33.155-.637.413-.92.258-.284.562-.51.898-.69a2.443 2.443 0 0 1 1.03-.28c.352-.014.616.093.799.324l-.006-.01Z" fill="#2E3442"/></svg>