<svg class="benefit__icon" width="105" height="107" fill="none" xmlns="http://www.w3.org/2000/svg"><path d="m81.569 27.37-4.243-5.303h-31.37C43.97 17.893 39.728 15 34.793 15c-6.825-.007-12.362 5.537-12.362 12.37 0 6.83 5.537 12.368 12.369 12.368 4.935 0 9.178-2.893 11.165-7.067h31.369l4.243-5.302h-.007ZM55.238 29.078v3.592M66.61 29.078v3.592M76.918 65.847l4.076 4.208a5.19 5.19 0 0 1 1.461 3.607v13.15a4.189 4.189 0 0 1-4.188 4.189h-5.094a4.189 4.189 0 0 1-4.188-4.188 3.053 3.053 0 0 0-3.052-3.053h-27.86a3.053 3.053 0 0 0-3.053 3.053A4.189 4.189 0 0 1 30.833 91h-5.095a4.189 4.189 0 0 1-4.187-4.188V73.662c0-1.343.526-2.638 1.46-3.607l4.077-4.208 7.517-14.176a5.25 5.25 0 0 1 4.638-2.79h25.52a5.25 5.25 0 0 1 4.638 2.79l7.517 14.176ZM76.918 62.503h6.347M20.734 62.503h6.348M76.918 65.847H27.082" stroke="#fff" stroke-width="5.5" stroke-linecap="round" stroke-linejoin="round" style="stroke-dashoffset:0;stroke-dasharray:300"/><path d="M33 75a1 1 0 1 0-.02.2M73 75a1 1 0 1 0-.02.2" stroke="#fff" stroke-width="4" stroke-linecap="round" style="stroke-dashoffset:0;stroke-dasharray:300"/></svg>