<svg class="benefits__car-icon" width="91" height="145" fill="none" xmlns="http://www.w3.org/2000/svg"><path fill-rule="evenodd" clip-rule="evenodd" d="M3.568.48C4.808.13 6.06.332 7.298.51c18.74 2.753 37.281 6.405 55.344 12.259.797.259 1.594.518 2.342.892 1.139.575 1.586 1.571 1.18 2.8-.359 1.03-1.213 1.515-2.271 1.466-.831-.036-1.648-.216-2.464-.395-18.345-4.11-36.932-6.72-55.452-9.86-.965-.174-1.95-.268-2.855-.596C1.503 6.488-.042 5.602.145 3.56.332 1.602 1.814.786 3.593.464M35.402 83.255c-.48-2.227.871-3.371 2.565-4.283 6.869-3.689 13.752-7.353 20.621-11.041 5.397-2.912 10.75-5.898 16.117-8.86 1.58-.876 3.224-2.096 4.841-.222 1.012 1.177.325 2.78-2.035 4.35-11.141 7.404-22.223 14.907-34.054 21.193-1.353.722-2.661 1.602-4.284 1.54-1.815-.045-3.226-.793-3.77-2.677ZM59.36 143.511c-.24-.902-.055-1.742.373-2.459.857-1.435 1.718-2.889 2.683-4.254 6.823-9.732 13.61-19.493 20.075-29.481.773-1.18 1.596-2.306 2.746-3.141 1.1-.805 2.287-1.02 3.516-.296 1.06.64 1.37 1.687 1.373 2.868.004 1.604-.655 3.003-1.517 4.288-2.093 3.134-4.101 6.351-6.407 9.327-6.012 7.717-12.188 15.33-18.269 22.987-.808 1.066-1.715 1.855-3.14 1.505-.733-.18-1.14-.744-1.434-1.344Z" fill="#2E3442" style="opacity:1"/></svg>