<svg class="benefit__icon" width="106" height="108" fill="none" xmlns="http://www.w3.org/2000/svg"><path d="M80.316 81.797c-3.133 2.113-6.794 3.606-9.855 4.559-11.337 3.532-24.608 3.452-35.86-.42-6.55-2.253-15.628-7.099-15.628-15.263 0-5.44 1.494-10.831 3.923-15.663.672-1.334 1.837-2.66 2.364-4.033.928-2.406.21-5.265.21-7.778s2.015-4.552 4.497-4.552h45.465" stroke="#fff" stroke-width="5.5" stroke-linecap="round" stroke-linejoin="round" style="stroke-dashoffset:0;stroke-dasharray:300"/><path d="M30.908 38.647h45.465c2.482 0 4.496 2.039 4.496 4.552 0 2.513-.717 5.365.21 7.778.528 1.373 1.693 2.7 2.364 4.033 2.43 4.832 3.924 10.217 3.924 15.663M66.042 50.731h-40.56" stroke="#fff" stroke-width="5.5" stroke-linecap="round" stroke-linejoin="round" style="stroke-dashoffset:0;stroke-dasharray:300"/><path d="M52.942 38.673c-8.848 0-16.024-7.265-16.024-16.223 0-3.132 2.508-5.672 5.602-5.672 3.095 0 5.603 2.54 5.603 5.672 0 3.133-2.508 5.672-5.603 5.672-2.212 0-4.12-1.3-5.036-3.179M53.41 38.673c8.848 0 16.024-7.265 16.024-16.223 0-3.132-2.508-5.672-5.602-5.672-3.095 0-5.603 2.54-5.603 5.672 0 3.133 2.508 5.672 5.603 5.672 2.212 0 4.12-1.3 5.036-3.179" stroke="#fff" stroke-width="5.5" stroke-linecap="round" stroke-linejoin="round" style="stroke-dashoffset:0;stroke-dasharray:300"/></svg>