<svg class="benefit__icon" width="106" height="108" fill="none" xmlns="http://www.w3.org/2000/svg"><path d="M28.314 42.183c5.447-8.89 15.25-14.826 26.436-14.826 17.108 0 30.975 13.867 30.975 30.975 0 17.109-13.867 30.975-30.975 30.975a30.812 30.812 0 0 1-17.108-5.152M35.28 52.227H18.902M35.28 63.563H12.626M35.28 74.898H18.902" stroke="#fff" stroke-width="5.5" stroke-linecap="round" stroke-linejoin="round" style="stroke-dashoffset:0;stroke-dasharray:300"/><path d="M55.01 63.374a5.244 5.244 0 1 0 0-10.488 5.244 5.244 0 0 0 0 10.488ZM69.418 46.07l-9.764 8.165M45.435 26.248v-6.744a4.91 4.91 0 0 1 4.912-4.911h7.827a4.91 4.91 0 0 1 4.911 4.911v6.744" stroke="#fff" stroke-width="5.5" stroke-linecap="round" stroke-linejoin="round" style="stroke-dashoffset:0;stroke-dasharray:300"/></svg>