<svg class="benefit__icon"  width="106" height="108" viewBox="0 0 106 108" fill="none" xmlns="http://www.w3.org/2000/svg">
            <path d="M69.2767 82.5426C64.5201 85.227 59.0266 86.7588 53.1753 86.7588C35.0559 86.7588 20.3672 72.0701 20.3672 53.9507C20.3672 35.8313 35.0559 21.1426 53.1753 21.1426C71.2947 21.1426 85.9834 35.8313 85.9834 53.9507C85.9834 59.7267 84.4907 65.1542 81.8701 69.8683" stroke="white" stroke-width="5.5" stroke-linecap="round" style="stroke-dashoffset: 0px; stroke-dasharray: 300;"></path>
            <path d="M44.8555 46.2861C44.8555 43.9486 42.9605 42.0537 40.623 42.0537C38.2855 42.0537 36.3906 43.9486 36.3906 46.2861" stroke="white" stroke-width="5.5" stroke-linecap="round" style="stroke-dashoffset: 0px; stroke-dasharray: 300;"></path>
            <path d="M69.9648 46.2861C69.9648 43.9486 68.0699 42.0537 65.7324 42.0537C63.3949 42.0537 61.5 43.9486 61.5 46.2861" stroke="white" stroke-width="5.5" stroke-linecap="round" style="stroke-dashoffset: 0px; stroke-dasharray: 300;"></path>
            <path d="M66.332 61.4036C63.1286 65.063 58.4229 67.374 53.1773 67.374C47.9318 67.374 43.226 65.063 40.0226 61.4036" stroke="white" stroke-width="5.5" stroke-linecap="round" style="stroke-dashoffset: 0px; stroke-dasharray: 300;"></path>
          </svg>