<svg width="24" height="24" xmlns="http://www.w3.org/2000/svg" xmlns:xlink="http://www.w3.org/1999/xlink" data-test-id="os-icon-svg" aria-hidden="true" class="os-icon__svg" style="fill:var(--color-icon-color--standard-4);width:18px;height:18px;min-width:18px;min-height:18px"><defs><path id="a" d="M18.897 11.009H5.773c-.5-.198-.567-.496-.36-.86l4.719-4.656c.106-.09.19-.214.375-.187h8.39v5.703zm-.66 3.051h-1.81a.38.38 0 1 1 0-.762h1.81a.381.381 0 0 1 0 .762zm-7.67-10.056a1.456 1.456 0 0 0-.11-.004c-.64 0-1.033.373-1.169.502l-.036.03L4.37 9.349l-.09.156c-.23.407-.293.773-.278 1.076L4 10.578v9.3h16.198V4.005h-9.63z"/></defs><use xlink:href="#a" fill-rule="evenodd"/></svg>