<svg class="footer__car-icon" width="89" height="71" fill="none" xmlns="http://www.w3.org/2000/svg"><path fill-rule="evenodd" clip-rule="evenodd" d="M.287 2.5c-.313.831-.275 1.713-.252 2.582.39 13.177 1.367 26.286 3.783 39.239.107.571.215 1.143.398 1.69.284.832.886 1.22 1.699 1.036.682-.166 1.054-.718 1.1-1.454.038-.577-.017-1.156-.073-1.735C5.66 30.848 5.35 17.79 4.696 4.735c-.04-.681-.029-1.37-.172-2.022C4.267 1.548 3.814.41 2.5.377 1.238.352.61 1.312.275 2.517M50.729 31.053c-1.385-.508-2.212.336-2.917 1.435-2.851 4.459-5.688 8.93-8.54 13.387-2.248 3.502-4.541 6.968-6.82 10.445-.673 1.024-1.57 2.064-.494 3.33.677.793 1.748.444 2.921-1.063 5.53-7.12 11.12-14.19 15.988-21.874.558-.879 1.215-1.714 1.294-2.84.103-1.26-.271-2.294-1.432-2.82ZM87.39 52.38c-.557-.238-1.106-.176-1.594.064-.977.479-1.967.96-2.907 1.52-6.7 3.948-13.415 7.87-20.252 11.552-.81.441-1.587.921-2.203 1.65-.593.698-.816 1.501-.444 2.408.33.784.975 1.08 1.728 1.176 1.022.13 1.961-.215 2.843-.71 2.15-1.2 4.347-2.334 6.412-3.694C76.329 62.8 81.631 59.13 86.954 55.53c.74-.475 1.308-1.04 1.189-2.053-.062-.521-.392-.847-.752-1.097Z" fill="#fff" style="opacity:1"/></svg>