<svg width="24" height="24" viewBox="0 0 24 24" xmlns="http://www.w3.org/2000/svg"  class="os-icon__svg" ><path  d="M12.474 6.741c.97 0 1.759.79 1.759 1.76a1.74 1.74 0 01-1.759 1.758A1.74 1.74 0 0110.716 8.5c0-.97.788-1.759 1.758-1.759m0 5.406A3.65 3.65 0 0016.121 8.5a3.65 3.65 0 00-3.647-3.646A3.65 3.65 0 008.828 8.5a3.65 3.65 0 003.646 3.647m0-9.233c3.08 0 5.586 2.494 5.586 5.56 0 3.463-4.042 8.736-5.586 10.622C10.93 17.211 6.888 11.941 6.888 8.5a5.593 5.593 0 015.586-5.586m0-1.914C8.353 1 5 4.364 5 8.5c0 4.475 5.133 10.793 6.706 12.623l.768.896.692-.807c.068-.074 6.782-7.54 6.782-12.712 0-4.136-3.352-7.5-7.474-7.5"></path></svg>