<svg class="intro__car-decor intro__car-decor--2" width="99" height="50" fill="none" xmlns="http://www.w3.org/2000/svg"><path fill-rule="evenodd" clip-rule="evenodd" d="M98.14 21.236c-.25.787-.799 1.387-1.33 1.988-8.08 9.077-16.57 17.73-26.073 25.35-.42.336-.84.672-1.304.941-.71.408-1.401.297-1.916-.354-.426-.555-.386-1.184.014-1.734.312-.433.696-.807 1.08-1.182 8.667-8.386 16.615-17.431 24.825-26.252.433-.456.83-.951 1.326-1.321.885-.66 1.905-1.177 2.934-.357.983.79.899 1.872.444 2.94M42.548 9.134c1.363.527 1.5 1.654 1.392 2.884-.442 4.982-.904 9.963-1.347 14.945-.34 3.92-.626 7.841-.93 11.762-.087 1.156-.012 2.467-1.586 2.674-.988.128-1.605-.806-1.615-2.624-.044-8.582-.161-17.166.638-25.724.09-.98.08-1.991.684-2.84.664-.956 1.562-1.45 2.764-1.077ZM1.803.744c.569.19.953.585 1.187 1.067.467.965.943 1.939 1.335 2.938 2.813 7.086 5.654 14.164 8.73 21.15.36.83.675 1.668.717 2.579.044.874-.26 1.585-1.08 1.989-.717.342-1.387.14-2.022-.275-.861-.563-1.379-1.409-1.764-2.324-.942-2.226-1.96-4.437-2.742-6.721C4.145 15.204 2.24 9.21.278 3.253c-.287-.809-.39-1.574.3-2.214.355-.33.8-.349 1.225-.295Z" fill="#fff" style="opacity:1"/></svg>