<svg class="header__logo" width="183" height="180" fill="none" xmlns="http://www.w3.org/2000/svg"><path d="M104.793 17.204a5.116 5.116 0 0 1 5.447 1.169l5.731 5.764a5.109 5.109 0 0 0 3.803 1.5l8.167-.287a5.1 5.1 0 0 1 4.775 2.871l3.52 7.27a5.095 5.095 0 0 0 3.117 2.658l7.799 2.349a5.091 5.091 0 0 1 3.591 4.279l.942 7.97a5.09 5.09 0 0 0 2.091 3.54l6.577 4.71a5.093 5.093 0 0 1 2.008 5.236l-1.714 7.807a5.1 5.1 0 0 0 .825 4.049l4.655 6.539a5.105 5.105 0 0 1 .19 5.624l-4.171 6.821a5.11 5.11 0 0 0-.546 4.11l2.253 7.659a5.12 5.12 0 0 1-1.656 5.389l-6.19 5.117a5.129 5.129 0 0 0-1.857 3.709l-.38 7.97a5.135 5.135 0 0 1-3.315 4.555l-7.562 2.86a5.147 5.147 0 0 0-2.955 2.896l-2.98 7.441a5.142 5.142 0 0 1-4.599 3.225l-8.13.274a5.143 5.143 0 0 0-3.716 1.776l-5.282 6.108a5.14 5.14 0 0 1-5.374 1.559l-7.807-2.366a5.137 5.137 0 0 0-4.073.479l-7.029 4.097a5.125 5.125 0 0 1-5.57-.261l-6.616-4.754a5.115 5.115 0 0 0-3.999-.858l-8.008 1.616a5.109 5.109 0 0 1-5.18-2.047l-4.689-6.61a5.1 5.1 0 0 0-3.507-2.106l-8.096-1.047a5.094 5.094 0 0 1-4.24-3.622l-2.26-7.727a5.088 5.088 0 0 0-2.64-3.14l-7.288-3.582a5.09 5.09 0 0 1-2.84-4.821l.394-7.996a5.092 5.092 0 0 0-1.48-3.848l-5.691-5.704a5.097 5.097 0 0 1-1.116-5.506l2.983-7.412a5.103 5.103 0 0 0-.143-4.137l-3.498-7.196a5.112 5.112 0 0 1 .743-5.585l5.249-6.05a5.12 5.12 0 0 0 1.22-3.965l-.95-7.92a5.129 5.129 0 0 1 2.522-5.042l6.968-4.045a5.137 5.137 0 0 0 2.441-3.348l1.7-7.81a5.14 5.14 0 0 1 4.014-3.943l7.954-1.592a5.144 5.144 0 0 0 3.383-2.366l4.185-6.87a5.142 5.142 0 0 1 5.056-2.423l8.081 1.059a5.14 5.14 0 0 0 3.948-1.141l6.24-5.176a5.132 5.132 0 0 1 5.546-.657l7.315 3.61a5.125 5.125 0 0 0 4.089.193l7.625-2.898Z" fill="#005BB4"/><path d="M126.47 108.238a37.272 37.272 0 0 0 2.513-6.423c-1.685.598-3.463.826-5.447.356l-6.907.198c-1.136 1.58-2.682 1.955-4.976.191l-3.588-.117c.014 2.164-.44 3.564-1.205 4.439.244 3.088-1.369 3.594-3.652 3.602-1.903-.054-3.424-.302-4.028-1.764h-13.9c-.604 1.462-2.125 1.707-4.028 1.764-2.28-.006-3.89-.511-3.646-3.602-.773-.875-1.225-2.275-1.208-4.439l-3.594.117c-2.288 1.764-3.84 1.386-4.976-.191l-6.907-.198c-2.224.53-4.197.174-6.056-.593 4.718 15.767 19.568 27.277 37.159 27.277 15.005 0 28.013-8.372 34.449-20.619l-.003.002Z" fill="#F8F8F8"/><path d="M82.507 108.695c1.06 0 1.482-.764 1.507-1.794h16.432c.025 1.03.446 1.794 1.507 1.794h1.671c1.817 0 1.842-1.017 1.842-2.767.297-.424 1.006-1.474 1.006-2.115v-3.583c0-.914-.227-1.775-.673-2.276-.391-1.652-1.893-1.892-2.175-2.927.773-.063 1.67-.72 1.67-1.468 0-.666-.917-.974-1.67-.974h-.837c-.54 0-.792.452-.837.974l-1.703-1.523a9.217 9.217 0 0 0-.862-.769v-.005c-.704-.544-1.521-.95-2.627-.95H87.69c-1.105 0-1.928.409-2.626.95v.005c-.308.234-.59.5-.862.77l-1.704 1.522c-.044-.525-.302-.974-.836-.974h-.837c-.754 0-1.679.308-1.679.974 0 .745.906 1.405 1.679 1.468-.288 1.035-1.784 1.277-2.18 2.927-.447.5-.665 1.362-.665 2.276v3.583c0 .641.709 1.691 1.005 2.115 0 1.75.025 2.767 1.843 2.767h1.679Zm-.502-3.422c-1.05 0-2.011-.433-2.011-1.463v-.326c0-.375.119-.487.501-.487h1.006c1.829 0 3.72.715 3.851 2.276h-3.35.003Zm16.601-4.434c-.194 1.122-.966 1.824-2.174 1.832h-8.4c-1.214-.005-1.982-.71-2.176-1.832V99.74h12.75v1.099Zm5.857 2.971c0 1.03-.956 1.463-2.006 1.463h-3.35c.134-1.561 2.018-2.276 3.852-2.276h1c.391 0 .502.112.502.487v.326h.002Zm-.917-6.005c.906-.258 1.452.419 1.71 1.21.282 1.041-.441 1.935-1.521 2.028h-2.616c-.371.005-.878-.093-1.111-.321-.108-.117-.188-.696 0-.88 1.106-1.05 2.275-1.776 3.538-2.037ZM87.358 91.77h9.741c1.011 0 4.187 3.015 4.688 3.743l-3.375.03-.64-.52H86.693l-.648.52-3.37-.03c.497-.728 3.672-3.743 4.683-3.743Zm-8.151 7.245c.258-.789.798-1.468 1.704-1.21 1.263.258 2.438.987 3.543 2.036.189.185.1.764 0 .881-.232.228-.742.326-1.11.321h-2.621c-1.076-.093-1.799-.987-1.516-2.028ZM76.614 99.273l.038-.889-3.06.272-1.051-1.716c-.064.574.056.642.056 1.197v.486c-1.344-.147-.391-3.55-2.621-3.558-2.056 0-1.596 4.68-2.804 4.673l-2.632-.006c-1.369 0-.892-1.462-4.6-1.454-1.986 0-3.959-.788-4.931.636l1.516.905-1.026.02.04.013c2.055 1.234 3.523 1.036 4.717.198l-1.426.006.595-.636 2.527.005.773.598-2.463.025c2.374.734 5.09.53 7.86.622 1.139 1.523 2.136 1.672 3.394.229l5.028-.136.031-.715-4.926-.006.39-.598 4.575-.174v.003Zm-6.66 1.517c-.699-.006-1.264-1.118-1.258-2.48 0-1.37.565-2.473 1.263-2.473s1.263 1.109 1.258 2.479c0 1.362-.566 2.474-1.264 2.474Z" fill="#F8F8F8"/><path d="m68.166 94.741-4.444.302-1.163 1.498.177.13h2.136a3.749 3.749 0 0 0 3.294-1.93ZM65.038 99.254l1.477.005c.377 0 .496-.117.496-.486 0-.34-.064-.21-.163-.647l-3.455-.006c.202.297 1.257 1.134 1.645 1.134ZM78.667 92.017c-.992-.666-2.35-1.288-3.098-1.288l-1.313-.006c-.992 0-2.433 1.838-2.632 2.577l6.228-.184c.183-.414.421-.789.817-1.099h-.002Z" fill="#F8F8F8"/><path d="M74.752 90.24c1.155 0 2.884.72 4.272 1.546.139-.079.297-.147.466-.204-2.35-1.25-5.525-2.153-7.373-2.158h-1.973c-2.141-.006-4.316.234-5.757.957-.703.35-1.327.82-2.006 1.258-.664.433-1.62.555-2.269.993l10.52.301c1.208-.753 1.818-2.699 3.782-2.694h.338Zm-8.691-.069a21.377 21.377 0 0 1 4.807-.049c-2.796.351-5.447.876-7.85 1.732.743-.641 1.66-1.234 3.043-1.683ZM56.322 94.931c-.08.316-.158.321-.158.759v.32c0 .493.158.653.327.968 2.992.006 5.184 1.308 5.92-1.764l-3.293.055-2.796-.34v.002ZM54.574 96.764l-.005 1.658.911-.66-.906-.998ZM55.391 96.049l.56-1.327-.54-.856c-.44.802-.397 1.522-.02 2.183ZM117.308 98.773c0 .37.113.486.49.486l1.482-.005c.383 0 1.438-.837 1.64-1.134l-3.449.006c-.108.437-.163.307-.163.647ZM127.827 96.978c.169-.315.327-.475.327-.967v-.321c-.005-.438-.08-.443-.163-.758l-2.79.34-3.3-.055c.734 3.072 2.929 1.77 5.926 1.764v-.002ZM119.923 90.38c-1.438-.72-3.607-.962-5.757-.956h-1.973c-1.842.005-5.015.905-7.364 2.158.169.055.321.123.46.204 1.388-.826 3.117-1.547 4.28-1.547h.327c1.967-.005 2.577 1.944 3.782 2.694l10.526-.301c-.654-.438-1.602-.56-2.275-.993-.679-.437-1.294-.905-2.006-1.258Zm-6.472-.257a21.326 21.326 0 0 1 4.801.048c1.388.452 2.3 1.042 3.048 1.683-2.399-.856-5.059-1.38-7.849-1.731ZM121.752 96.54l-1.164-1.497-4.436-.302a3.741 3.741 0 0 0 3.286 1.93h2.136l.178-.13ZM129.745 96.764l-.912.997.912.661v-1.658Z" fill="#F8F8F8"/><path d="M124.378 98.28c-3.707-.005-3.23 1.455-4.599 1.455l-2.632.005c-1.208.006-.754-4.673-2.804-4.673-2.236.006-1.283 3.41-2.626 3.559v-.487c0-.554.119-.622.063-1.196l-1.05 1.716-3.067-.272.045.889 4.568.174.391.598-4.926.005.03.715 5.026.136c1.264 1.444 2.264 1.294 3.394-.228 2.771-.093 5.486.111 7.868-.623l-2.468-.024.778-.598 2.522-.006.595.636-1.427-.005c1.2.837 2.666 1.036 4.727-.199l.03-.013-1.016-.02 1.515-.904c-.975-1.425-2.948-.637-4.931-.637l-.006-.002Zm-10.01 2.51c-.698 0-1.263-1.11-1.269-2.474 0-1.37.56-2.48 1.258-2.48s1.263 1.105 1.269 2.475c0 1.361-.565 2.473-1.258 2.479ZM128.902 93.866l-.534.856.559 1.327c.377-.66.416-1.381-.025-2.183ZM110.057 90.72l-1.313.006c-.743 0-2.106.623-3.098 1.289.397.307.64.685.818 1.098l6.233.185c-.207-.74-1.645-2.577-2.64-2.577ZM53.524 97.427c.12.756.29 1.525.535 2.316l-.535-2.316ZM66.709 85.028c.066.016.133.035.2.054-.283 1.09.55 2.436 2.02 3.151 1.62.788 3.396.506 3.97-.628.573-1.133-.275-2.691-1.896-3.48-1.368-.665-2.848-.568-3.62.16-1.322-.3-4.833-.651-6.833-.459 10.794-2.908 21.37-1.69 30.354.11 6.212 1.244 13.8 1.203 17.607-.735-12.753-6.018-20.034-.37-26.42-2.183 20.513-2.816 27.077-12.63 40.494-13.241h.003-.005c-23.672-3.279-30.116 8.495-40.461 11.86-2.99.974-6.12 1.082-9.337.911.762-1.163 3.86-2.884 5.267-3.425.936.505 2.38.334 3.607-.517 1.554-1.076 2.18-2.83 1.399-3.92-.784-1.09-2.676-1.098-4.233-.024-1.413.978-2.059 2.517-1.577 3.607-1.8 1.392-4.294 2.738-7.034 3.363-4.547 1.036-8.304 1.139-12.479 1.96 3.109-6.402 6.406-4.812 12.634-8.95 4.433-2.944 6.397-6.627 13.695-8.938-17.36-1.84-23.777 12.62-29.828 18.163a37.46 37.46 0 0 0-1.175 9.316c0 1.538.103 3.053.286 4.545-.302-7.585 5.663-12.7 13.357-10.697l.005-.003Z" fill="#F8F8F8"/><g class="animate-rotate" fill="#F8F8F8"><path d="m58.228 69.47-4.795-3.504.083-.111.277-.365 7.555-.13 2.662-3.51-7.566.147.67-.886c.743-.979.981-1.903.713-2.77-.27-.867-.928-1.686-1.978-2.452l-.355-.259a8.832 8.832 0 0 0-1.585-.938 4.521 4.521 0 0 0-1.532-.407 2.812 2.812 0 0 0-1.435.277c-.46.22-.887.59-1.277 1.104l-5.697 7.506 12.246 8.949 2.014-2.656v.005Zm-9.591-7.008 2.961-3.904c.247-.326.527-.525.837-.592.31-.068.657.038 1.036.315.38.277.582.574.604.883.022.313-.091.631-.338.957l-2.961 3.904-2.142-1.566.003.003ZM75.533 54.369l-1.79-2.732-7.059 4.458-1.443-2.202 5.96-3.765-1.79-2.732-5.963 3.765-1.443-2.202 7.056-4.458-1.79-2.732-9.896 6.25 8.265 12.597 9.893-6.247ZM80.963 52.694l-1.79-8.943 8.351 7.682 3.311-.636-2.94-14.704-3.308.638 1.782 8.923-8.345-7.661-3.31.636 2.939 14.704 3.31-.639ZM95.689 51.365l3.283.421 1.549-11.637 4.438.57.43-3.22-12.166-1.559-.43 3.222 4.442.568-1.546 11.635ZM116.518 46.186l2.133 4.184 4.782.193-5.995 9.088 2.834 1.794 8.278-12.59-2.834-1.793-4.787-.171-2.114-4.198-2.834-1.794-8.279 12.587 2.834 1.796 5.982-9.096ZM128.332 72.04l2.659-1.934-5.001-6.614 2.145-1.563 4.222 5.587 2.66-1.936-4.222-5.584 2.141-1.563 5.001 6.617 2.66-1.936-7.01-9.272-12.265 8.924 7.01 9.273ZM52.917 120.521l.917 1.25c.263-.185.49-.378.682-.576.194-.201.335-.411.427-.628.09-.22.121-.443.094-.677-.028-.231-.133-.47-.31-.712l-1.643-2.243c-.183-.247-.38-.424-.596-.525-.216-.1-.44-.141-.682-.125a2.233 2.233 0 0 0-.742.196 4.778 4.778 0 0 0-.779.446l-2.366 1.669a4.348 4.348 0 0 0-.676.579c-.188.201-.33.41-.421.625a1.276 1.276 0 0 0-.097.672c.028.231.133.473.316.72l1.643 2.243c.177.244.374.416.59.516.216.101.443.144.684.128.241-.016.488-.079.74-.193a4.64 4.64 0 0 0 .77-.449l-.917-1.253c-.183.136-.349.185-.498.15a.702.702 0 0 1-.391-.28l-.984-1.34c-.113-.155-.16-.305-.144-.452.017-.146.117-.285.305-.418l2.372-1.672c.185-.131.354-.182.501-.15a.669.669 0 0 1 .39.28l.984 1.34c.108.15.158.3.144.454-.013.153-.116.294-.31.422l-.003.003ZM53.153 128.714l1.313 1.12 1.158-.593 2.829 2.417-.432 1.213 1.304 1.114 2.657-7.41-1.706-1.46-7.123 3.594v.005Zm5.94 1.147-1.743-1.489 2.782-1.4-1.04 2.889ZM72.236 133.197a1.626 1.626 0 0 0-.607-.503l-3.934-2.025-3.454 6.464 1.39.715 1.352-2.531.058.03.192.098.551 3.512 1.84.946-.56-3.517.463.239c.512.264.967.296 1.363.098.393-.199.74-.574 1.036-1.128l.1-.188a4.5 4.5 0 0 0 .343-.818c.078-.267.111-.517.094-.751a1.315 1.315 0 0 0-.224-.647l-.003.006Zm-1.601 1.492c-.108.201-.236.321-.38.356-.146.036-.304.011-.476-.076l-2.045-1.052.604-1.131 2.045 1.052c.172.087.282.202.335.34.053.139.025.31-.083.511ZM88.627 137.916a1.324 1.324 0 0 0-.435-.533 1.655 1.655 0 0 0-.745-.272l-4.403-.589-1.005 7.233 1.556.21.394-2.833.277.035 1.737 3.119 2.059.274-1.746-3.118.518.071c.574.076 1.014-.044 1.316-.362.302-.318.496-.786.582-1.408l.03-.209c.045-.313.056-.609.04-.884a2.159 2.159 0 0 0-.172-.737l-.003.003Zm-1.424 1.406c-.03.225-.108.377-.236.462-.124.084-.282.111-.474.087l-2.288-.307.177-1.265 2.289.308c.191.027.335.095.432.209.097.114.13.283.1.508v-.002ZM95.398 142.983l-.1-1.275 3.292-.25-.128-1.579-3.291.253-.1-1.273 3.898-.299-.127-1.576-5.464.418.58 7.278 5.466-.419-.128-1.577-3.898.299ZM107.647 134.852l1.341 4.23-4.314-3.322-1.502.457 2.208 6.97 1.502-.456-1.344-4.241 4.317 3.333 1.501-.457-2.208-6.97-1.501.456ZM118.879 131.321l-.796-1.378-4.973 2.762.795 1.378 1.815-1.008 2.87 4.974 1.344-.745-2.873-4.977 1.818-1.006ZM122.513 126.683l2.649 7.416 1.313-1.12-.437-1.207 2.828-2.416 1.164.584 1.305-1.114-7.115-3.6-1.707 1.46v-.003Zm4.625 1.8-1.743 1.49-1.031-2.895 2.774 1.405ZM134.546 122.266l-4.544-3.251-.925 1.245 6.009 4.303 3.153-4.241-1.466-1.049-2.227 2.993ZM42.954 90.78c0-5.757 1.017-11.38 3.026-16.705l-2.502-.908a49.823 49.823 0 0 0-3.189 17.613c0 7.715 1.707 15.107 5.076 21.968l2.402-1.136c-3.195-6.505-4.813-13.513-4.813-20.834v.002ZM140.389 73.167l-2.502.908a47.16 47.16 0 0 1 3.026 16.705c0 7.321-1.618 14.329-4.813 20.832l2.402 1.136c3.369-6.861 5.076-14.253 5.076-21.968a49.76 49.76 0 0 0-3.192-17.613h.003Z"/></g></svg>