<svg class="about__wrap" viewBox="0 0 273 292" fill="none" xmlns="http://www.w3.org/2000/svg">
<path d="M227.415 193.992a100.445 100.445 0 0 0 6.603-17.155c-4.426 1.597-9.1 2.207-14.312.951l-18.149.53c-2.985 4.218-7.047 5.22-13.075.508l-9.428-.312c.036 5.779-1.157 9.518-3.167 11.855.641 8.248-3.596 9.598-9.595 9.62-5.001-.145-8.998-.806-10.585-4.712h-36.524c-1.587 3.906-5.584 4.56-10.585 4.712-5.991-.014-10.221-1.365-9.58-9.62-2.032-2.337-3.218-6.076-3.175-11.855l-9.442.312c-6.013 4.712-10.09 3.702-13.075-.508l-18.149-.53c-5.846 1.415-11.029.464-15.914-1.583 12.398 42.109 51.419 72.848 97.64 72.848 39.428 0 73.608-22.361 90.52-55.068l-.008.007Z" 
/>
<path d="M111.896 195.212c2.788 0 3.895-2.04 3.96-4.792h43.178c.066 2.752 1.172 4.792 3.96 4.792h4.39c4.776 0 4.841-2.715 4.841-7.391.779-1.133 2.643-3.935 2.643-5.648v-9.569c0-2.44-.597-4.741-1.769-6.077-1.026-4.414-4.972-5.053-5.715-7.819 2.031-.167 4.39-1.924 4.39-3.92 0-1.779-2.41-2.6-4.39-2.6h-2.198c-1.42 0-2.082 1.206-2.199 2.6l-4.477-4.066c-.728-.726-1.456-1.43-2.264-2.055v-.014c-1.849-1.452-3.997-2.534-6.902-2.534h-23.827c-2.905 0-5.067 1.089-6.902 2.534v.014c-.808.625-1.55 1.336-2.264 2.055l-4.477 4.066c-.116-1.402-.793-2.6-2.199-2.6h-2.198c-1.98 0-4.412.821-4.412 2.6 0 1.989 2.381 3.753 4.412 3.92-.757 2.766-4.688 3.412-5.729 7.819-1.173 1.336-1.748 3.637-1.748 6.077v9.569c0 1.713 1.864 4.515 2.643 5.648 0 4.676.065 7.391 4.841 7.391h4.412Zm-1.318-9.141c-2.759 0-5.285-1.154-5.285-3.906v-.871c0-1.002.313-1.299 1.318-1.299h2.642c4.805 0 9.777 1.909 10.119 6.076h-8.801.007ZM154.2 174.23c-.51 2.999-2.541 4.872-5.715 4.893h-22.073c-3.188-.014-5.205-1.894-5.715-4.893v-2.933H154.2v2.933Zm15.39 7.935c0 2.752-2.512 3.906-5.271 3.906h-8.801c.349-4.167 5.3-6.076 10.119-6.076h2.628c1.027 0 1.318.297 1.318 1.299v.871h.007Zm-2.41-16.037c2.381-.69 3.815 1.118 4.492 3.231.743 2.78-1.157 5.169-3.997 5.416h-6.872c-.975.014-2.308-.247-2.919-.857-.284-.312-.495-1.859 0-2.352 2.905-2.803 5.977-4.741 9.296-5.438Zm-42.537-16.118h25.597c2.657 0 11 8.052 12.318 9.998l-8.868.079-1.681-1.386h-29.113l-1.704 1.386-8.852-.079c1.303-1.946 9.646-9.998 12.303-9.998Zm-21.418 19.349c.677-2.106 2.097-3.921 4.478-3.231 3.319.69 6.406 2.635 9.311 5.438.495.493.262 2.04 0 2.352-.612.61-1.951.871-2.92.857h-6.886c-2.825-.247-4.725-2.636-3.983-5.416ZM96.411 170.048l.102-2.374-8.044.726-2.76-4.581c-.167 1.532.146 1.713.146 3.195v1.299c-3.53-.392-1.026-9.482-6.887-9.503-5.401 0-4.193 12.502-7.367 12.48l-6.916-.015c-3.596 0-2.344-3.906-12.085-3.884-5.22 0-10.403-2.105-12.958 1.699l3.982 2.418-2.694.05.102.037c5.402 3.296 9.26 2.766 12.398.53l-3.75.014 1.566-1.699 6.64.015 2.03 1.597-6.471.065c6.239 1.961 13.373 1.416 20.653 1.663 2.992 4.066 5.613 4.465 8.918.61l13.213-.363.08-1.91-12.944-.014 1.027-1.597 12.02-.465v.007Zm-17.5 4.051c-1.835-.014-3.32-2.983-3.306-6.621 0-3.659 1.485-6.607 3.32-6.607 1.834 0 3.32 2.963 3.305 6.622 0 3.637-1.485 6.606-3.32 6.606Z" 
/>
<path d="m74.215 157.946-11.678.806-3.057 4 .466.348h5.612c4.048.015 7.2-2.417 8.656-5.154ZM65.995 169.997l3.88.015c.99 0 1.304-.312 1.304-1.3 0-.907-.168-.559-.43-1.727l-9.078-.015c.531.791 3.305 3.027 4.324 3.027ZM101.806 150.671c-2.606-1.779-6.174-3.441-8.14-3.441l-3.45-.015c-2.606 0-6.392 4.908-6.916 6.883l16.365-.494c.481-1.103 1.107-2.105 2.148-2.933h-.007Z" 
/>
<path d="M91.52 145.923c3.035 0 7.578 1.924 11.225 4.131a6.997 6.997 0 0 1 1.223-.545c-6.174-3.339-14.516-5.75-19.372-5.764h-5.184c-5.627-.015-11.342.624-15.128 2.555-1.849.937-3.487 2.193-5.27 3.362-1.747 1.154-4.259 1.481-5.963 2.65l27.643.806c3.174-2.011 4.775-7.21 9.937-7.195h.888Zm-22.838-.182c4.855-.609 8.881-.493 12.63-.13-7.345.936-14.312 2.337-20.624 4.624 1.951-1.713 4.36-3.296 7.994-4.494ZM43.092 158.454c-.21.842-.415.857-.415 2.025v.857c0 1.314.415 1.743.86 2.585 7.862.014 13.62 3.492 15.557-4.712l-8.656.145-7.346-.907v.007ZM38.499 163.347l-.015 4.429 2.395-1.764-2.38-2.665ZM40.646 161.438l1.47-3.543-1.419-2.287c-1.157 2.142-1.04 4.066-.05 5.83ZM203.34 168.712c0 .988.299 1.3 1.289 1.3l3.895-.015c1.004 0 3.778-2.236 4.309-3.027l-9.063.015c-.284 1.168-.43.82-.43 1.727ZM230.982 163.921c.445-.842.86-1.271.86-2.585v-.857c-.015-1.168-.212-1.183-.43-2.025l-7.331.907-8.67-.145c1.929 8.204 7.694 4.727 15.571 4.712v-.007ZM210.213 146.3c-3.779-1.924-9.479-2.57-15.128-2.555h-5.184c-4.841.014-13.177 2.417-19.35 5.764.444.146.844.327 1.208.545 3.648-2.207 8.191-4.131 11.248-4.131h.859c5.169-.015 6.771 5.191 9.937 7.195l27.657-.806c-1.718-1.169-4.208-1.496-5.977-2.65-1.783-1.169-3.399-2.418-5.27-3.362Zm-17.007-.689c3.735-.363 7.761-.479 12.617.13 3.647 1.206 6.042 2.781 8.008 4.494-6.305-2.287-13.294-3.688-20.625-4.624ZM215.017 162.752l-3.057-4-11.656-.806c1.435 2.729 4.609 5.169 8.635 5.154h5.612l.466-.348ZM236.02 163.347l-2.395 2.665 2.395 1.764v-4.429Z" 
/>
<path d="M221.919 167.398c-9.741-.014-8.489 3.885-12.085 3.885l-6.916.014c-3.174.015-1.98-12.48-7.367-12.48-5.875.014-3.371 9.104-6.902 9.503v-1.299c0-1.481.313-1.663.168-3.195l-2.76 4.582-8.059-.727.117 2.375 12.005.464 1.026 1.597-12.944.015.08 1.909 13.206.363c3.32 3.855 5.948 3.456 8.918-.609 7.28-.247 14.415.297 20.676-1.663l-6.487-.065 2.046-1.598 6.625-.014 1.565 1.699-3.749-.015c3.152 2.236 7.003 2.766 12.419-.53l.08-.036-2.671-.051 3.982-2.418c-2.563-3.804-7.746-1.698-12.959-1.698l-.014-.008Zm-26.303 6.701c-1.834 0-3.32-2.962-3.334-6.606 0-3.659 1.47-6.622 3.305-6.622 1.835 0 3.32 2.948 3.334 6.607 0 3.638-1.485 6.607-3.305 6.621ZM233.807 155.608l-1.405 2.287 1.471 3.543c.99-1.764 1.092-3.688-.066-5.83ZM184.288 147.208l-3.45.014c-1.951 0-5.533 1.663-8.139 3.442 1.041.82 1.681 1.829 2.147 2.933l16.38.494c-.546-1.975-4.324-6.883-6.938-6.883ZM35.74 165.119a44.941 44.941 0 0 0 1.405 6.185l-1.405-6.185ZM70.385 132.005c.175.044.35.095.524.145-.742 2.912 1.45 6.506 5.307 8.415 4.26 2.105 8.926 1.35 10.433-1.677 1.507-3.028-.721-7.188-4.98-9.293-3.596-1.779-7.484-1.517-9.515.428-3.472-.806-12.696-1.742-17.952-1.227 28.363-7.768 56.151-4.516 79.76.291 16.321 3.325 36.261 3.216 46.264-1.961-33.51-16.073-52.642-.987-69.422-5.829 53.901-7.522 71.148-33.731 106.405-35.364h.007-.015c-62.2-8.756-79.133 22.687-106.317 31.675-7.855 2.6-16.082 2.89-24.534 2.433 2.002-3.108 10.141-7.703 13.84-9.148 2.46 1.35 6.253.893 9.478-1.38 4.084-2.875 5.73-7.557 3.677-10.469-2.061-2.911-7.033-2.933-11.124-.065-3.713 2.614-5.41 6.723-4.143 9.634-4.732 3.717-11.284 7.311-18.484 8.981-11.946 2.766-21.818 3.042-32.789 5.234 8.168-17.097 16.832-12.85 33.197-23.9 11.648-7.863 16.81-17.7 35.985-23.871-45.616-4.915-62.477 33.701-78.376 48.505a101.592 101.592 0 0 0-3.087 24.88c0 4.109.27 8.153.75 12.139-.794-20.256 14.88-33.919 35.097-28.569l.014-.007Z" 
/>
</svg>