<svg  width="101" height="100" fill="none" xmlns="http://www.w3.org/2000/svg">
<path d="M44.73 5.739a9 9 0 0 1 11.73 0l3.886 3.338a9 9 0 0 0 6.597 2.143l5.105-.417a9 9 0 0 1 9.49 6.895l1.18 4.984a9 9 0 0 0 4.078 5.612l4.375 2.663a9 9 0 0 1 3.624 11.156l-1.974 4.726a9 9 0 0 0 0 6.937l1.974 4.726a9 9 0 0 1-3.624 11.156l-4.375 2.663a9 9 0 0 0-4.078 5.612l-1.18 4.984a9 9 0 0 1-9.49 6.895l-5.105-.417a9 9 0 0 0-6.597 2.144l-3.885 3.337a9 9 0 0 1-11.73 0l-3.885-3.337a9 9 0 0 0-6.597-2.144l-5.105.417a9 9 0 0 1-9.49-6.895l-1.181-4.984a9 9 0 0 0-4.077-5.612l-4.375-2.663a9 9 0 0 1-3.625-11.156l1.974-4.726a9 9 0 0 0 0-6.937l-1.974-4.726a9 9 0 0 1 3.625-11.156l4.375-2.663a9 9 0 0 0 4.077-5.612l1.181-4.984a9 9 0 0 1 9.49-6.895l5.105.417a9 9 0 0 0 6.597-2.143l3.885-3.338Z" />
</svg>