<svg class="about__wrap" viewBox="0 0 273 292" fill="none" xmlns="http://www.w3.org/2000/svg">
<g class="animate-rotate" >
<path d="m48.101 90.456-12.602-9.359.219-.297.728-.973 19.852-.349 6.996-9.373-19.881.392 1.762-2.366c1.95-2.614 2.577-5.082 1.87-7.398-.706-2.316-2.438-4.502-5.198-6.549l-.931-.69c-1.398-1.038-2.781-1.873-4.164-2.505-1.384-.631-2.723-.994-4.026-1.088a7.286 7.286 0 0 0-3.771.74c-1.209.588-2.33 1.576-3.356 2.948L10.63 73.634l32.178 23.9 5.292-7.093v.014ZM22.898 71.739l7.782-10.426c.648-.87 1.383-1.4 2.199-1.582.815-.182 1.725.101 2.722.842.998.74 1.529 1.532 1.587 2.36.058.834-.24 1.684-.888 2.555l-7.782 10.425-5.628-4.181.008.007ZM93.572 50.126l-4.703-7.297-18.55 11.907-3.792-5.881L82.187 38.8l-4.704-7.297L61.817 41.56l-3.793-5.881L76.566 23.77l-4.703-7.296-26.004 16.69L67.575 66.81l25.997-16.683ZM107.841 45.653l-4.703-23.886 21.942 20.518 8.7-1.7-7.724-39.27-8.693 1.707 4.681 23.828-21.927-20.46-8.7 1.7 7.724 39.27 8.7-1.707ZM146.534 42.103l8.627 1.125 4.07-31.08 11.662 1.524 1.129-8.603L140.055.91l-1.128 8.603 11.669 1.518-4.062 31.073ZM201.265 28.273l5.606 11.173 12.565.515-15.754 24.271 7.448 4.792 21.753-33.622-7.448-4.792-12.58-.457-5.554-11.21-7.448-4.791L178.1 47.766l7.448 4.799 15.717-24.292ZM232.307 97.316l6.989-5.162-13.14-17.663 5.635-4.175 11.094 14.92 6.989-5.17-11.095-14.912 5.628-4.175 13.14 17.672 6.989-5.17-18.418-24.764-32.229 23.835 18.418 24.764ZM34.145 226.793l2.41 3.34a12.345 12.345 0 0 0 1.79-1.539c.51-.537.882-1.096 1.122-1.677.24-.588.32-1.184.247-1.808-.072-.617-.349-1.256-.815-1.902l-4.317-5.99c-.48-.66-.997-1.132-1.565-1.401a3.53 3.53 0 0 0-1.791-.334c-.626.044-1.281.225-1.951.523-.677.305-1.354.704-2.046 1.191l-6.217 4.457a11.415 11.415 0 0 0-1.776 1.547c-.495.537-.867 1.096-1.107 1.669a3.457 3.457 0 0 0-.255 1.794c.073.617.35 1.263.83 1.924l4.317 5.989c.466.654.983 1.111 1.551 1.38a3.573 3.573 0 0 0 1.798.341 5.546 5.546 0 0 0 1.944-.516 12.17 12.17 0 0 0 2.024-1.197l-2.41-3.347c-.48.363-.917.493-1.31.399-.393-.102-.736-.349-1.027-.748l-2.584-3.579c-.299-.414-.422-.813-.379-1.205.044-.392.306-.763.801-1.118l6.232-4.465c.487-.349.932-.487 1.317-.4.386.087.728.334 1.027.748l2.584 3.579c.284.4.415.799.379 1.213-.037.406-.306.784-.816 1.125l-.007.007ZM34.764 248.675l3.45 2.992 3.044-1.583 7.433 6.454-1.136 3.238 3.429 2.977 6.981-19.791-4.484-3.899-18.717 9.598v.014Zm15.608 3.064-4.579-3.978 7.31-3.739-2.73 7.717ZM84.909 260.647c-.357-.522-.888-.972-1.595-1.343l-10.337-5.409-9.078 17.265 3.654 1.909 3.553-6.759.153.08.502.261 1.449 9.381 4.834 2.526-1.47-9.395 1.215.639c1.347.705 2.54.792 3.582.262 1.034-.53 1.944-1.532 2.723-3.013l.262-.501c.393-.748.691-1.474.902-2.185.204-.712.291-1.38.248-2.004a3.533 3.533 0 0 0-.59-1.728l-.007.014Zm-4.208 3.986c-.284.537-.619.857-.997.951-.386.095-.801.029-1.252-.203l-5.373-2.81 1.587-3.02 5.373 2.81c.45.232.742.537.88.907.139.371.066.828-.218 1.365ZM127.977 273.251a3.499 3.499 0 0 0-1.143-1.423c-.509-.37-1.164-.617-1.958-.726l-11.568-1.576-2.642 19.32 4.091.559 1.034-7.565.728.094 4.564 8.327 5.409.734-4.586-8.328 1.361.189c1.507.203 2.665-.116 3.458-.966.794-.849 1.303-2.098 1.529-3.76l.08-.559c.117-.835.146-1.627.102-2.36-.051-.733-.196-1.394-.451-1.967l-.008.007Zm-3.741 3.753c-.081.603-.284 1.01-.619 1.235-.328.225-.743.297-1.245.232l-6.013-.82.465-3.376 6.014.82c.502.073.881.254 1.135.559.255.305.343.755.263 1.358v-.008ZM145.77 286.784l-.262-3.405 8.648-.668-.334-4.218-8.649.675-.262-3.398 10.243-.798-.335-4.211-14.356 1.118 1.521 19.435 14.364-1.118-.335-4.211-10.243.799ZM177.955 265.069l3.523 11.297-11.335-8.872-3.945 1.219L172 287.328l3.946-1.219-3.531-11.326 11.342 8.901 3.946-1.22-5.802-18.615-3.946 1.22ZM207.468 255.638l-2.089-3.681-13.068 7.376 2.089 3.681 4.769-2.693 7.542 13.286 3.531-1.99-7.55-13.293 4.776-2.686ZM217.019 243.252l6.96 19.806 3.451-2.991-1.15-3.224 7.432-6.454 3.058 1.561 3.429-2.977-18.695-9.612-4.485 3.898v-.007Zm12.151 4.806-4.579 3.979-2.709-7.732 7.288 3.753ZM248.637 231.454l-11.94-8.683-2.431 3.325 15.79 11.493 8.285-11.326-3.851-2.802-5.853 7.993ZM7.966 147.368c0-15.377 2.672-30.391 7.95-44.614l-6.574-2.425c-5.554 15-8.38 30.827-8.38 47.039 0 20.604 4.485 40.344 13.338 58.669l6.312-3.035c-8.394-17.374-12.646-36.09-12.646-55.642v.008ZM263.99 100.329l-6.574 2.425c5.278 14.223 7.95 29.237 7.95 44.614 0 19.551-4.252 38.268-12.645 55.634l6.311 3.035c8.853-18.325 13.337-38.065 13.337-58.669 0-16.212-2.824-32.039-8.386-47.039h.007Z"/>
</g>
</svg>