<svg   width="176" height="57" viewBox="0 0 176 57" fill="none" xmlns="http://www.w3.org/2000/svg" style="opacity: 1;">
      <path d="M0.879314 3.39424C0.932244 3.1198 1.00237 2.84055 1.0912 2.54863C1.17852 2.26456 1.29115 2.0179 1.42278 1.79931C1.56073 1.59006 1.73967 1.42126 1.97227 1.3116C2.19703 1.20042 2.50228 1.17797 2.86297 1.24753C3.16877 1.30651 3.46841 1.60829 3.76037 2.1607C4.05234 2.71311 4.32946 3.38464 4.59022 4.18315C4.85098 4.98166 5.0903 5.84922 5.30967 6.778C5.52753 7.71462 5.71346 8.56376 5.86445 9.3411C6.01544 10.1184 6.1312 10.7832 6.21807 11.3449C6.29709 11.905 6.35393 12.2006 6.37925 12.2381C6.98633 11.241 7.65709 10.1667 8.38672 8.99802C9.11483 7.83721 9.95328 6.779 10.8849 5.82823C11.8165 4.87745 12.8466 4.13272 13.9845 3.58772C15.1225 3.04272 16.409 2.9086 17.8517 3.18686C18.5888 3.32901 19.264 3.58122 19.8787 3.93565C20.4935 4.29007 21.0088 4.73915 21.4322 5.28439C21.8557 5.82963 22.1543 6.43211 22.3421 7.1027C22.53 7.77328 22.5507 8.50923 22.3964 9.30902C22.2664 9.98335 21.9075 10.4102 21.3135 10.5803C20.7274 10.7519 20.0886 10.7751 19.4143 10.6451L18.9516 10.5558L17.3568 8.19877C17.2941 8.18668 17.25 8.16192 17.2247 8.12451C17.162 8.11241 17.1071 8.10182 17.0646 8.06922C17.0206 8.04447 16.9672 8.02604 16.9045 8.01394C15.8302 7.80676 14.9416 7.94442 14.2229 8.42389C13.5121 8.90488 12.9151 9.55423 12.4399 10.3735C11.9663 11.1848 11.5918 12.0723 11.3352 13.0231C11.0708 13.9724 10.8607 14.8509 10.7079 15.6429C10.59 16.2545 10.5332 16.886 10.5284 17.5438C10.5328 18.1953 10.5482 18.8326 10.5886 19.4666C10.6304 20.0928 10.6443 20.738 10.6487 21.3895C10.6532 22.0409 10.5826 22.7023 10.4525 23.3767C10.2045 24.6626 9.39048 25.1725 8.01045 24.9063C7.24202 24.7581 6.52871 24.1976 5.85332 23.2297C5.17945 22.2539 4.5636 21.0616 3.99009 19.6498C3.41659 18.2379 2.91584 16.7018 2.47216 15.0385C2.02849 13.3752 1.66983 11.7771 1.39922 10.2284C1.1286 8.67982 0.940543 7.29351 0.844391 6.06318C0.748239 4.83286 0.748417 3.94642 0.85579 3.3897L0.879314 3.39424Z"></path>
      <path d="M23.2375 15.0259C23.5566 13.3714 24.0717 11.7548 24.7907 10.1774C25.5097 8.6001 26.4322 7.23279 27.5566 6.08336C28.681 4.93392 30.0252 4.07897 31.5812 3.51701C33.1372 2.95504 34.9095 2.87396 36.9012 3.25808C38.0381 3.47737 38.9946 3.8733 39.7692 4.45372C40.5437 5.03413 41.1607 5.7143 41.6187 6.50206C42.0689 7.2883 42.3553 8.16494 42.4715 9.12262C42.5877 10.0803 42.5537 11.0578 42.3646 12.0379C42.0637 13.5983 41.4096 15.0499 40.4039 16.3849C39.3982 17.7199 38.1843 18.8277 36.7526 19.7145C35.321 20.6014 33.7792 21.1742 32.1005 21.4442C30.4313 21.7078 28.806 21.5326 27.2419 20.9137C27.1023 21.8058 27.2627 22.5768 27.7229 23.2268C28.1846 23.8688 28.7881 24.4081 29.535 24.8368C30.2819 25.2655 31.0704 25.6047 31.9193 25.8416C32.7589 26.0848 33.5197 26.2722 34.1941 26.4023C34.8684 26.5324 35.5705 26.6027 36.2048 26.6031C36.8406 26.5956 37.4779 26.5802 38.1276 26.5429C38.7695 26.504 39.4146 26.4902 40.0739 26.4872C40.7254 26.4827 41.4025 26.5564 42.1082 26.6925C42.3826 26.7454 42.654 26.8141 42.9303 26.8999C43.1987 26.9842 43.4438 27.1046 43.6751 27.255C43.897 27.4116 44.0691 27.6156 44.1727 27.8796C44.2857 28.1372 44.3003 28.4409 44.2352 28.7781C44.1233 29.3583 43.8179 29.8037 43.3125 30.1047C42.8071 30.4057 42.2026 30.6307 41.491 30.7781C40.7794 30.9255 40.0094 30.9966 39.1839 30.9756C38.3568 30.9625 37.5688 30.9162 36.8009 30.8495C36.033 30.7827 35.3339 30.6967 34.7036 30.5914C34.0733 30.4861 33.6013 30.4032 33.2955 30.3442C31.3353 29.9661 29.6315 29.3122 28.1843 28.3825C26.7449 27.4542 25.5891 26.3204 24.7375 25.0013C23.8795 23.6729 23.3163 22.1654 23.0557 20.4805C22.7951 18.7955 22.8516 16.9847 23.2252 15.0479L23.2375 15.0259ZM28.6909 12.9791C28.4837 14.0533 28.4814 14.8662 28.6778 15.4083C28.8726 15.9582 29.5393 16.3389 30.6763 16.5582C31.476 16.7125 32.281 16.7132 33.1054 16.5713C33.9298 16.4294 34.7063 16.1562 35.4334 15.7597C36.1605 15.3632 36.7818 14.8405 37.2864 14.2059C37.7911 13.5713 38.1196 12.8376 38.2784 12.0143C38.3676 11.5517 38.4192 11.0737 38.436 10.5646C38.4514 10.0633 38.3823 9.57825 38.2115 9.11428C38.0486 8.65182 37.8 8.25417 37.4657 7.92131C37.1314 7.58845 36.6631 7.35988 36.0437 7.2404C35.1262 7.06347 34.2479 7.10552 33.415 7.37591C32.5821 7.64631 31.8442 8.05701 31.1996 8.61585C30.5472 9.17318 30.013 9.83462 29.5735 10.5957C29.1418 11.3582 28.8433 12.1464 28.683 12.9776L28.6909 12.9791Z"></path>
      <path d="M44.8063 16.3719C44.9605 15.5721 45.2669 15.0375 45.7349 14.7618C46.2028 14.4861 46.8791 14.4376 47.7651 14.6085L48.2277 14.6977C48.2266 15.2098 48.2196 15.7941 48.2211 16.4612C48.2225 17.1284 48.2758 17.8218 48.3888 18.543C48.5019 19.2643 48.6725 19.9397 48.8993 20.5771C49.1276 21.2067 49.4554 21.7416 49.8765 22.1725C50.1151 21.1044 50.5813 20.1207 51.283 19.2232C51.9848 18.3257 52.7845 17.5528 53.6791 16.9202C54.5831 16.2813 55.5334 15.7814 56.5458 15.4237C57.5504 15.0644 58.5217 14.8776 59.444 14.8603L60.4555 15.0554C61.9296 15.3397 63.1207 15.911 64.0365 16.7708C64.9523 17.6306 65.6485 18.6594 66.1359 19.8432C66.6217 21.0349 66.9157 22.3359 67.0241 23.7556C67.1325 25.1754 67.1502 26.602 67.0848 28.037C67.0117 29.4706 66.877 30.8434 66.673 32.1541C66.469 33.4648 66.2778 34.5828 66.1009 35.5002L62.7449 34.8529C62.9199 32.9755 63.0234 31.1737 63.0757 29.4271C63.1116 28.7346 63.1316 27.9984 63.12 27.2154C63.1083 26.4324 63.0798 25.695 63.0186 25C62.9653 24.3066 62.8794 23.6557 62.7781 23.0424C62.6753 22.437 62.5181 21.9025 62.3208 21.4497C62.2196 21.3 62.0945 21.1051 61.933 20.8462C61.7778 20.5967 61.6084 20.3363 61.4375 20.0838C61.2667 19.8312 61.0991 19.6037 60.9475 19.42C60.7974 19.2284 60.7012 19.1366 60.6698 19.1306C59.7993 18.7106 58.9663 18.7288 58.177 19.1947C57.3877 19.6606 56.636 20.3532 55.9156 21.2634C55.1952 22.1736 54.5573 23.2461 53.9878 24.47C53.4183 25.694 52.9127 26.8814 52.4663 28.0152C52.0263 29.1584 51.6713 30.1554 51.4094 31.0076C51.1474 31.8598 50.9818 32.3809 50.9235 32.5567C50.0493 32.9574 49.2961 32.9829 48.6656 32.6254C48.0352 32.268 47.4938 31.6593 47.04 30.8073C46.5863 29.9554 46.2222 28.9336 45.9649 27.7373C45.6999 26.5394 45.4939 25.2879 45.3345 23.9641C45.1735 22.648 45.0548 21.3239 44.9753 20.0073C44.8958 18.6908 44.8388 17.468 44.803 16.3469L44.8063 16.3719Z"></path>
      <path d="M63.3255 11.9817C63.3436 11.8876 63.3729 11.8201 63.4164 11.7634C63.4285 11.7007 63.4593 11.6253 63.5073 11.5451C63.663 11.4125 63.8811 11.2512 64.1711 11.055C64.4611 10.8588 64.6421 10.7636 64.7048 10.7757L73.9494 12.5587C74.0145 12.2215 74.0703 11.6793 74.1183 10.9241C74.1664 10.1689 74.2359 9.34459 74.3377 8.43709C74.4302 7.53593 74.5866 6.5983 74.804 5.6399C75.0214 4.68149 75.3241 3.829 75.7012 3.09659C76.0798 2.35634 76.5723 1.78444 77.1788 1.38091C77.7853 0.977385 78.5409 0.854736 79.4661 1.03319C78.8688 4.13042 78.6011 6.65687 78.6724 8.60623C78.7422 10.5634 79.0379 12.1087 79.5642 13.2594C80.0905 14.41 80.7789 15.2259 81.6452 15.7102C82.5036 16.1929 83.4267 16.5092 84.4002 16.6482C85.3737 16.7871 86.3419 16.8275 87.3155 16.755C88.2798 16.6889 89.1364 16.6752 89.8759 16.7202C90.6154 16.7653 91.1742 16.9462 91.5616 17.2568C91.949 17.5674 92.0549 18.1571 91.89 19.0117C91.766 19.6547 91.5278 20.0886 91.1848 20.3071C90.8417 20.5256 90.2348 20.6362 89.3828 20.6264C89.1337 20.6109 88.7153 20.5872 88.1356 20.5567C87.556 20.5262 86.8994 20.4728 86.1909 20.3931C85.4731 20.3197 84.7068 20.2451 83.9012 20.1629C83.0863 20.0871 82.32 20.0124 81.6115 19.9327C80.8937 19.8594 80.2432 19.7746 79.6599 19.6783C79.0767 19.5821 78.6439 19.5068 78.3695 19.4538C78.3392 19.6107 78.2736 19.8664 78.1712 20.2289C78.0687 20.5913 78.0062 20.8314 77.982 20.9569C77.7219 22.3055 77.681 23.6558 77.8658 25.0171C78.052 26.3705 78.2697 27.73 78.5374 29.0829C78.8051 30.4358 79.0242 31.7874 79.2135 33.1251C79.4028 34.4629 79.362 35.8132 79.1018 37.1619C79.055 37.4049 78.9815 37.6591 78.8846 37.9088C78.7876 38.1585 78.6482 38.3756 78.4771 38.5459C78.2981 38.7147 78.0718 38.8337 77.7919 38.8936C77.512 38.9535 77.1558 38.8604 76.7234 38.6143C75.6141 38.0832 74.8786 37.2582 74.5092 36.1378C74.1397 35.0174 73.9476 33.7361 73.9424 32.2874C73.9371 30.8388 74.0348 29.3205 74.2495 27.7435C74.4563 26.165 74.598 24.6715 74.6573 23.2678C74.7244 21.8657 74.6282 20.6353 74.3908 19.5892C74.1456 18.5416 73.569 17.8204 72.6625 17.4179L64.1766 13.683C64.0512 13.6588 63.8965 13.4907 63.7034 13.185C63.5102 12.8794 63.3912 12.6531 63.3511 12.5234C63.3319 12.4546 63.3313 12.3732 63.3479 12.287C63.3287 12.2182 63.3296 12.1289 63.3538 12.0034L63.3255 11.9817Z"  ></path>
      <path d="M103.841 23.7972C103.989 23.0288 104.238 22.4586 104.58 22.0772C104.922 21.6959 105.527 21.5931 106.382 21.7579C106.476 21.7761 106.648 21.8093 106.902 21.8828C107.158 21.9483 107.321 21.9879 107.384 22C107.413 22.9896 107.441 24.0685 107.452 25.2337C107.463 26.3988 107.519 27.5808 107.607 28.7689C107.694 29.9649 107.824 31.1448 107.995 32.3245C108.166 33.5042 108.445 34.5908 108.823 35.5827C109.483 35.1083 110.016 34.4954 110.422 33.744C110.819 32.9911 111.161 32.2276 111.436 31.4348C111.719 30.6436 111.978 29.8885 112.233 29.1569C112.488 28.4253 112.832 27.8247 113.272 27.3565C113.712 26.8884 114.282 26.5916 114.996 26.4692C115.702 26.3532 116.611 26.5286 117.733 26.997C119.019 27.245 120.001 27.6784 120.677 28.3049C121.353 28.9314 121.905 29.6559 122.33 30.4861C122.755 31.3164 123.164 32.1922 123.541 33.1027C123.917 34.021 124.46 34.8739 125.166 35.685C125.423 35.3199 125.754 34.8713 126.145 34.3205C126.534 33.7775 127 33.2167 127.544 32.6304C128.087 32.0519 128.653 31.4779 129.258 30.9115C129.864 30.3451 130.473 29.8445 131.102 29.4048C131.723 28.9714 132.35 28.6288 132.967 28.3818C133.584 28.1348 134.158 28.0667 134.676 28.1665C135.93 28.4084 136.945 29.0107 137.719 29.9733C138.485 30.9343 139.088 32.0672 139.519 33.3704C139.95 34.6814 140.237 36.1031 140.388 37.6369C140.538 39.1785 140.605 40.6471 140.588 42.0426C140.571 43.4382 140.513 44.704 140.399 45.8449C140.293 46.9874 140.193 47.7977 140.098 48.2917C140.021 48.6916 139.868 48.9793 139.647 49.1562C139.425 49.3331 139.158 49.4524 138.863 49.5093C138.567 49.5661 138.256 49.5792 137.93 49.5407C137.602 49.5101 137.301 49.4683 137.027 49.4154C136.964 49.4033 136.87 49.3851 136.757 49.3389C136.634 49.2991 136.506 49.2498 136.355 49.1882C136.235 49.1326 136.08 49.0538 135.872 48.9488L135.537 34.6193C135.556 34.5252 135.463 34.3285 135.27 34.0229C135.077 33.7172 134.921 33.5163 134.815 33.4309C134.721 33.4127 134.646 33.3819 134.597 33.34C134.534 33.3279 134.487 33.3188 134.46 33.2892C134.432 33.2675 134.402 33.2536 134.371 33.2476C133.728 33.1236 133.074 33.2659 132.4 33.6808C131.734 34.0973 131.074 34.6531 130.435 35.3513C129.787 36.0558 129.161 36.8541 128.541 37.7511C127.921 38.648 127.349 39.5462 126.824 40.4535C126.301 41.3529 125.831 42.1893 125.416 42.9471C125 43.7126 124.669 44.2913 124.437 44.6938C124.299 44.7323 124.046 44.7403 123.668 44.7163C123.291 44.6923 123.043 44.6689 122.917 44.6447C122.055 44.4784 121.454 44.0534 121.114 43.3697C120.766 42.6846 120.534 41.8671 120.414 40.9251C120.295 39.9831 120.241 38.9561 120.241 37.8582C120.249 36.7618 120.186 35.7412 120.068 34.7913C119.949 33.8493 119.693 33.0273 119.298 32.3331C118.903 31.6388 118.255 31.2048 117.33 31.0263C116.993 30.9613 116.606 31.2365 116.17 31.8518C115.735 32.4672 115.295 33.2689 114.846 34.2477C114.405 35.228 113.957 36.2882 113.518 37.4236C113.078 38.5667 112.686 39.6297 112.354 40.6312C112.015 41.6311 111.654 42.8301 111.258 44.2095C111.177 44.2915 111.041 44.3629 110.832 44.4364C110.63 44.5114 110.413 44.5833 110.193 44.671C109.973 44.7586 109.752 44.8056 109.544 44.8305C109.336 44.8554 109.181 44.8581 109.087 44.8399C108.224 44.6736 107.476 44.1227 106.828 43.1843C106.179 42.246 105.645 41.0938 105.225 39.7279C104.806 38.362 104.474 36.8749 104.224 35.265C103.981 33.6567 103.809 32.1027 103.719 30.5889C103.628 29.075 103.597 27.719 103.627 26.5128C103.656 25.3067 103.725 24.401 103.843 23.7894L103.841 23.7972Z" ></path>
      <path d="M143.386 38.1989C143.706 36.5444 144.221 34.9277 144.94 33.3504C145.659 31.7731 146.581 30.4057 147.706 29.2563C148.83 28.1069 150.174 27.2519 151.73 26.69C153.286 26.128 155.059 26.0469 157.05 26.431C158.187 26.6503 159.144 27.0462 159.918 27.6267C160.693 28.2071 161.31 28.8872 161.768 29.675C162.218 30.4612 162.504 31.3379 162.62 32.2956C162.737 33.2532 162.703 34.2308 162.514 35.2109C162.213 36.7713 161.559 38.2229 160.553 39.5579C159.547 40.8929 158.333 42.0006 156.902 42.8875C155.47 43.7744 153.928 44.3472 152.249 44.6171C150.58 44.8807 148.955 44.7055 147.391 44.0867C147.251 44.9788 147.412 45.7498 147.872 46.3997C148.334 47.0418 148.937 47.5811 149.684 48.0098C150.431 48.4385 151.219 48.7776 152.068 49.0145C152.908 49.2578 153.669 49.4452 154.343 49.5753C155.017 49.7053 155.719 49.7757 156.354 49.776C156.99 49.7685 157.627 49.7532 158.277 49.7158C158.918 49.677 159.564 49.6631 160.223 49.6602C160.874 49.6557 161.551 49.7294 162.257 49.8655C162.532 49.9184 162.803 49.987 163.079 50.0728C163.348 50.1571 163.593 50.2776 163.824 50.4279C164.046 50.5846 164.218 50.7885 164.322 51.0525C164.435 51.3102 164.449 51.6139 164.384 51.951C164.272 52.5313 163.967 52.9766 163.461 53.2776C162.956 53.5787 162.352 53.8037 161.64 53.9511C160.928 54.0985 160.158 54.1695 159.333 54.1486C158.506 54.1355 157.718 54.0892 156.95 54.0224C156.182 53.9556 155.483 53.8696 154.853 53.7643C154.222 53.659 153.75 53.5761 153.445 53.5171C151.484 53.1391 149.78 52.4852 148.333 51.5554C146.894 50.6272 145.738 49.4934 144.886 48.1743C144.028 46.8458 143.465 45.3384 143.205 43.6534C142.944 41.9685 143.001 40.1576 143.374 38.2209L143.386 38.1989ZM148.84 36.1521C148.633 37.2263 148.63 38.0391 148.827 38.5812C149.022 39.1312 149.688 39.5119 150.825 39.7312C151.625 39.8854 152.43 39.8861 153.254 39.7442C154.079 39.6023 154.855 39.3292 155.582 38.9326C156.309 38.5361 156.931 38.0135 157.435 37.3788C157.94 36.7442 158.269 36.0106 158.427 35.1873C158.517 34.7246 158.568 34.2466 158.585 33.7375C158.6 33.2362 158.531 32.7512 158.36 32.2872C158.198 31.8248 157.949 31.4271 157.615 31.0943C157.28 30.7614 156.812 30.5328 156.193 30.4134C155.275 30.2364 154.397 30.2785 153.564 30.5489C152.731 30.8193 151.993 31.23 151.349 31.7888C150.696 32.3461 150.162 33.0076 149.722 33.7686C149.291 34.5311 148.992 35.3194 148.832 36.1505L148.84 36.1521Z"></path>
      <path d="M172.477 21.2492C173.456 20.6411 174.131 20.6005 174.504 21.1116C174.884 21.6321 175.073 22.5063 175.069 23.7498C175.066 24.9855 174.923 26.4461 174.632 28.1223C174.342 29.7985 174.035 31.5124 173.714 33.264C173.392 35.0156 173.105 36.6761 172.851 38.2456C172.597 39.815 172.482 41.0859 172.524 42.0457C172.435 42.5083 172.327 42.9022 172.199 43.2272C172.071 43.5523 171.908 43.8056 171.717 43.9964C171.519 44.1779 171.245 44.2956 170.886 44.3404C170.528 44.3851 170.07 44.3538 169.522 44.248C169.427 44.2298 169.35 44.1661 169.274 44.0539C169.198 43.9416 169.164 43.6584 169.156 43.1933C169.148 42.7282 169.195 42.0216 169.28 41.0703C169.366 40.1191 169.533 38.793 169.789 37.0857C170.035 35.3848 170.365 33.2525 170.786 30.6906C171.199 28.1271 171.765 24.9831 172.488 21.2351L172.477 21.2492ZM170.037 52.4557C170.437 52.5328 170.804 52.7339 171.142 53.0511C171.479 53.3682 171.665 53.7131 171.706 54.0871C171.748 54.4611 171.563 54.832 171.182 55.2058C170.793 55.5781 170.057 55.8509 168.974 56.0244C168.167 55.7386 167.619 55.4213 167.322 55.0632C167.025 54.705 166.888 54.3614 166.903 54.0308C166.918 53.7003 167.058 53.3939 167.316 53.1102C167.574 52.8265 167.878 52.6005 168.214 52.4212C168.548 52.2498 168.891 52.1535 169.244 52.1401C169.596 52.1267 169.86 52.2345 170.043 52.465L170.037 52.4557Z"></path>
    </svg>