<svg width="24" height="24" xmlns="http://www.w3.org/2000/svg" xmlns:xlink="http://www.w3.org/1999/xlink" data-test-id="os-icon-svg" aria-hidden="true" class="os-icon__svg" style="fill:var(--color-icon-color--standard-4);width:18px;height:18px;min-width:18px;min-height:18px"><defs><path id="a" d="M17.918 7.718a2.765 2.765 0 0 1 1.828 2.596v11.062h-8.832V10.314c0-1.195.764-2.212 1.829-2.596a3.884 3.884 0 0 0 5.175 0zm-11.244.257a3.584 3.584 0 0 0 3.558.59 3.838 3.838 0 0 0-.423 1.75v9.805H5v-9.607c0-1.136.69-2.114 1.674-2.538zm2.29-5.271c1.24 0 2.269.91 2.46 2.096 0 .16.013.317.032.472a2.497 2.497 0 0 1-2.492 2.423 2.499 2.499 0 0 1-2.496-2.496 2.498 2.498 0 0 1 2.496-2.495zM15.33 2c1.544 0 2.8 1.256 2.8 2.8 0 1.545-1.256 2.8-2.8 2.8a2.804 2.804 0 0 1-2.8-2.8c0-1.544 1.256-2.8 2.8-2.8z"/></defs><use xlink:href="#a" fill-rule="evenodd"/></svg>