<svg width="24" height="24" xmlns="http://www.w3.org/2000/svg" xmlns:xlink="http://www.w3.org/1999/xlink" data-test-id="os-icon-svg" aria-hidden="true" class="os-icon__svg" style="fill:var(--color-icon-color--standard-4);width:18px;height:18px;min-width:18px;min-height:18px"><defs><path id="a" d="M17.875 4a2.125 2.125 0 0 0-1.063 3.963v3.474h-4.249V7.963a2.133 2.133 0 0 0 1.062-1.838 2.125 2.125 0 1 0-3.188 1.838v3.474h-4.25V7.963A2.122 2.122 0 0 0 5.125 4a2.125 2.125 0 0 0-1.063 3.963v9.073A2.122 2.122 0 0 0 5.125 21a2.125 2.125 0 0 0 1.063-3.964v-3.474h4.25v3.475A2.122 2.122 0 0 0 11.5 21a2.125 2.125 0 0 0 1.063-3.963v-3.474h5.312c.587 0 1.063-.476 1.063-1.063V7.963A2.122 2.122 0 0 0 17.875 4"/></defs><use xlink:href="#a" fill-rule="evenodd"/></svg>