<?xml version="1.0" standalone="no"?>
<!DOCTYPE svg PUBLIC "-//W3C//DTD SVG 20010904//EN"
 "http://www.w3.org/TR/2001/REC-SVG-20010904/DTD/svg10.dtd">
<svg version="1.0" xmlns="http://www.w3.org/2000/svg"
 width="1264.000000pt" height="848.000000pt" viewBox="0 0 1264.000000 848.000000"
 preserveAspectRatio="xMidYMid meet">

<g transform="translate(0.000000,848.000000) scale(0.100000,-0.100000)"
fill="#000000" stroke="none">
<path d="M6600 5173 c-255 -13 -507 -53 -651 -102 -192 -65 -417 -173 -705
-339 -105 -60 -205 -117 -222 -126 -20 -10 -100 -24 -210 -37 -643 -73 -1096
-174 -1276 -286 -90 -56 -131 -109 -165 -213 -26 -78 -40 -248 -22 -259 6 -4
19 -45 27 -91 16 -84 16 -84 -6 -102 l-23 -19 24 -26 c13 -14 38 -31 54 -39
37 -15 204 -40 330 -49 50 -4 97 -9 106 -11 14 -4 17 13 22 138 3 79 12 166
20 194 39 137 149 270 272 329 95 45 145 57 240 58 204 1 384 -111 475 -296
49 -101 60 -156 60 -310 l0 -120 773 7 c424 3 1018 9 1320 12 l547 7 0 106 c0
135 19 222 67 314 100 190 325 308 528 278 294 -43 474 -260 475 -572 l0 -86
183 34 c309 56 359 80 414 201 51 110 53 362 4 362 -12 0 -61 99 -61 122 0 16
-10 18 -100 18 l-101 0 -87 84 c-116 113 -114 115 104 123 l159 6 3 72 c2 50
-1 75 -10 82 -7 6 -89 18 -183 27 -302 30 -296 28 -499 116 -492 212 -706 285
-1011 344 -235 45 -584 65 -875 49z m30 -130 c0 -6 -97 -383 -116 -449 -5 -20
-15 -22 -112 -28 -179 -11 -1164 -47 -1168 -43 -8 8 165 129 289 203 345 206
570 284 897 313 126 11 210 13 210 4z m628 -18 c92 -13 332 -63 340 -70 5 -4
-41 -329 -48 -337 -5 -6 -637 -38 -762 -38 -46 0 -45 -14 -21 269 l18 204 185
-6 c102 -4 231 -13 288 -22z m548 -140 c227 -88 252 -111 214 -191 -12 -23
-28 -48 -36 -55 -10 -8 -78 -15 -197 -20 -100 -4 -182 -7 -184 -6 -2 3 37 299
43 315 5 16 13 14 160 -43z m-3892 -653 c6 -10 -56 -71 -120 -120 -80 -61
-116 -72 -251 -72 -140 0 -139 -1 -98 79 28 57 64 88 109 96 101 18 352 30
360 17z"/>
<path d="M4320 4099 c-126 -25 -264 -140 -315 -264 -25 -61 -29 -83 -29 -170
0 -87 4 -109 29 -170 36 -87 132 -188 216 -228 175 -82 381 -46 511 91 114
119 153 263 113 417 -22 84 -60 147 -126 210 -108 103 -249 143 -399 114z
m244 -173 c128 -75 186 -247 128 -378 -69 -157 -256 -228 -405 -154 -181 88
-229 320 -97 469 90 103 258 131 374 63z"/>
<path d="M4335 3831 c-48 -22 -69 -44 -90 -94 -20 -48 -19 -103 4 -152 22 -48
44 -69 94 -90 64 -27 149 -13 201 33 28 26 56 92 56 137 0 45 -28 111 -56 137
-54 48 -142 60 -209 29z"/>
<path d="M8032 4099 c-74 -14 -150 -56 -213 -115 -182 -175 -182 -468 1 -637
178 -165 437 -166 609 -2 66 63 104 126 126 210 82 318 -197 608 -523 544z
m220 -161 c101 -43 171 -155 171 -273 0 -119 -62 -218 -169 -271 -70 -34 -177
-37 -246 -6 -189 83 -243 322 -108 475 87 100 225 129 352 75z"/>
<path d="M8061 3840 c-105 -45 -151 -162 -102 -258 23 -46 46 -67 94 -87 64
-27 149 -13 201 33 10 9 27 35 37 57 56 121 -22 254 -154 262 -29 1 -63 -2
-76 -7z"/>
</g>
</svg>
